<?xml version="1.0" standalone="no"?>
<!DOCTYPE svg PUBLIC "-//W3C//DTD SVG 1.1//EN" "http://www.w3.org/Graphics/SVG/1.1/DTD/svg11.dtd" >
<svg xmlns="http://www.w3.org/2000/svg">
<metadata></metadata>
<defs>
<font id="baskerville_classicoitalic" horiz-adv-x="983" >
<font-face units-per-em="2048" ascent="1638" descent="-410" />
<missing-glyph horiz-adv-x="479" />
<glyph horiz-adv-x="0" />
<glyph unicode="&#xd;" horiz-adv-x="479" />
<glyph unicode=" "  horiz-adv-x="479" />
<glyph unicode="&#x09;" horiz-adv-x="479" />
<glyph unicode="&#xa0;" horiz-adv-x="479" />
<glyph unicode="!" horiz-adv-x="550" d="M92 84q0 45 35 80t80 35q47 0 76.5 -34t29.5 -81q0 -45 -35.5 -80t-80.5 -35t-75 34t-30 81zM246 332q39 154 106 461q18 127 37 254q23 164 49 247q43 143 142 144q73 0 73 -86q0 -55 -88 -273q-61 -143 -121 -286q-49 -154 -153 -461h-45z" />
<glyph unicode="&#x22;" horiz-adv-x="733" d="M328 872l98 533q8 49 98 49q78 0 78 -39q0 -8 -209 -543h-65zM631 872l94 533q8 49 104 49q76 0 76 -39q0 -8 -209 -543h-65z" />
<glyph unicode="#" horiz-adv-x="1368" d="M49 418l19 110h276l92 332h-330l17 113h342l129 442h117l-129 -442h358l129 442h117l-129 -442h258l-19 -113h-268l-90 -332h319l-18 -110h-332l-125 -441h-118l127 441h-359l-127 -441h-119l127 441h-264zM461 528h360l90 332h-358z" />
<glyph unicode="$" horiz-adv-x="1148" d="M4 18q0 14 49 189q18 70 37 137q35 117 62 117q25 0 30 -21v-39q0 -111 66.5 -205t169.5 -135l207 601q-123 104 -174 174q-78 109 -78 229q0 195 149 311q135 109 334 109q25 0 51 -2l39 112l88 2l-47 -133q51 -23 154 -67h6q4 0 33.5 36.5t50.5 36.5q8 0 8 -20 q0 -8 -43 -178t-49 -185q-8 -23 -23 -22q-31 0 -37 96q-12 154 -129 217l-186 -534q137 -117 191 -185q88 -117 88 -245q0 -203 -164 -332q-150 -119 -359 -119q-29 0 -57 2l-65 -186h-84l67 196q-156 29 -221 93q-33 31 -37 30q-29 0 -57.5 -50t-46.5 -50q-23 0 -23 20z M498 43q12 -2 37 -2q123 0 220 87t97 208q0 127 -162 268zM557 1153q0 -119 150 -252l174 504q-33 4 -50 4q-117 0 -195.5 -70.5t-78.5 -185.5z" />
<glyph unicode="%" horiz-adv-x="1738" d="M197 -135l8 8l117 135q92 104 276 314q367 422 817 954q-119 -53 -237 -53q-82 0 -150 26q-4 -209 -166 -411q-172 -217 -375 -217q-102 0 -163.5 58t-61.5 161q0 195 193.5 390t386.5 195q86 0 155.5 -56t163.5 -56q207 0 461 176q27 18 57 18q21 0 23 -8q-2 -2 -8 -10 t-260 -299q-236 -270 -592 -682l-375 -434q-55 -70 -174 -201q-23 -23 -64 -23q-31 0 -32 15zM418 803q0 -121 102 -121q147 0 297 213q141 198 141 352q0 117 -102 117q-150 0 -299 -209q-141 -199 -139 -352zM891 150q0 201 190.5 394t393.5 193q188 0 188 -184 q0 -188 -170 -401q-178 -223 -363 -224q-106 0 -169 58q-70 59 -70 164zM1061 117q0 -123 98 -123q145 0 295 211q143 200 141 352q0 119 -108 119q-154 0 -295 -207q-131 -193 -131 -352z" />
<glyph unicode="&#x26;" horiz-adv-x="1714" d="M186 526q0 137 74 238.5t203 140.5q-49 102 -49 189q0 141 105.5 245.5t246.5 104.5q88 0 156 -45q78 -51 77 -135q0 -45 -18 -82q-25 -45 -66 -45q-59 0 -96 86t-117 86q-90 0 -152.5 -79t-62.5 -171q0 -53 41 -127q23 8 70 8q53 0 102 -29q57 -33 58 -82 q0 -37 -25.5 -64.5t-62.5 -27.5q-100 0 -176 115q-76 -12 -127.5 -90t-51.5 -158q0 -219 211 -352q182 -117 414 -117q211 0 371 98q188 113 188 312q0 135 -88 212t-225 77q-102 0 -176 -46q-88 -53 -88 -147q0 -41 23.5 -76t60.5 -35q25 0 46 64.5t74 64.5q90 0 91 -98 q0 -57 -44.5 -96t-103.5 -39q-90 0 -149.5 65.5t-59.5 155.5q0 160 203 240q137 55 340 63q182 8 262 35q147 51 147 186q0 78 -47 140q-53 66 -129 65q-66 0 -67 -41q0 -12 4 -28q8 -23 8 -31q0 -84 -80 -84q-43 0 -68.5 27.5t-25.5 70.5q0 68 61 113q55 39 127 39 q127 0 212 -88t85 -215q0 -178 -141 -262q-117 -68 -305 -62q129 -123 129 -297q0 -250 -225 -407q-201 -143 -461 -144q-274 0 -475 139q-227 158 -228 420z" />
<glyph unicode="'" horiz-adv-x="370" d="M307 872l99 533q8 49 98 49q78 0 78 -39q0 -8 -209 -543h-66z" />
<glyph unicode="(" horiz-adv-x="647" d="M147 133q0 692 682 1370l70 -18q-285 -276 -457 -651q-180 -393 -180 -773q0 -250 105 -477l-86 -20q-133 266 -134 569z" />
<glyph unicode=")" horiz-adv-x="647" d="M-139 -416q283 281 454 652q180 393 181 772q0 250 -103 477l86 18q133 -266 133 -569q0 -690 -682 -1368z" />
<glyph unicode="*" d="M332 926q0 78 108 110q84 23 168 43q4 2 11.5 5t11.5 3q-16 20 -129 43q-92 18 -92 74q0 41 34.5 74t73.5 33q45 0 82 -62q53 -84 61.5 -90t18.5 -16q0 12 8 43q6 25 6 41q0 14 -2 41.5t-2 42.5q0 55 27.5 96t81.5 41q63 0 63 -57q0 -37 -45 -111q-55 -86 -63 -111 q-2 -8 -9 -24q10 4 24.5 12t113.5 92q76 63 118 64q27 0 46.5 -15.5t19.5 -42.5q0 -80 -109 -112q-84 -20 -170 -41q-10 -4 -28 -12q2 0 22 -17q61 -14 125 -29q80 -25 80 -73q0 -41 -33.5 -74t-74.5 -33q-45 0 -82 62q-49 82 -58.5 90t-23.5 18q0 -10 -5 -36.5t-5 -43.5 q0 -14 3 -45.5t3 -48.5q0 -53 -31 -94t-82 -41q-59 0 -59 59q0 39 51 123q55 92 63 129l-26 -16q-4 -2 -113 -92q-76 -61 -119 -62q-63 0 -63 60z" />
<glyph unicode="+" horiz-adv-x="1183" d="M61 535v112h474v477h110v-477h477v-112h-475v-478h-112v478h-474z" />
<glyph unicode="," horiz-adv-x="497" d="M-59 -276q0 2 112.5 98t118.5 164q-29 -4 -43 -4q-82 0 -82 71q0 55 47 99.5t105 44.5q51 0 81.5 -31t28.5 -82q-2 -104 -100 -211q-82 -88 -193 -143q-41 -27 -55 -27q-23 0 -20 21z" />
<glyph unicode="-" horiz-adv-x="550" d="M59 401l33 111h463l-31 -111h-465z" />
<glyph unicode="." horiz-adv-x="497" d="M63 88q0 45 35 79t80 34q47 0 78 -34t31 -81q0 -45 -36 -80t-81 -35q-47 0 -77 34t-30 83z" />
<glyph unicode="/" horiz-adv-x="661" d="M-82 -174l873 1599l112 2l-872 -1599z" />
<glyph unicode="0" horiz-adv-x="1036" d="M117 373q0 141 43 291q72 250 237 460q203 260 420 260q156 0 227 -129q60 -102 58 -272q-2 -150 -43 -297q-72 -252 -234 -459q-199 -254 -417 -254q-156 0 -232 129q-59 102 -59 271zM283 256q-2 -229 149 -229q139 0 266 223q102 182 176 463q64 246 64 387 q0 229 -137 229q-139 0 -271 -223q-104 -182 -180 -461q-68 -248 -67 -389z" />
<glyph unicode="1" horiz-adv-x="952" d="M115 14q0 29 61 47q45 12 88 23q53 20 88 94q14 35 41 127l230 811q8 31 6 49q0 39 -97.5 43t-97.5 41q0 20 31 29q86 16 262 57q125 37 117 37q18 1 18 -22t-22 -103l-267 -942q-31 -111 -30 -149q0 -51 39 -74q14 -8 73 -23q39 -10 39 -30q0 -29 -41 -29h-512 q-27 0 -26 14z" />
<glyph unicode="2" horiz-adv-x="1042" d="M-45 0q59 94 209 215q51 43 244 186q428 317 520 633q14 51 14 107q-2 188 -178 188q-123 0 -239.5 -106.5t-114.5 -229.5q2 -113 88 -112q49 0 107.5 37.5t64.5 37.5q10 0 10 -14q0 -45 -107 -102q-98 -51 -149 -52q-63 0 -105.5 44.5t-44.5 107.5q0 25 11 61 q45 160 197.5 270.5t320.5 110.5q137 0 223 -69q94 -76 94 -209q0 -188 -159 -371q-102 -117 -318 -270q-115 -82 -424 -297h662q-49 -68 -99 -137q-92 -125 -112 -125q-8 0 -8 8q0 10 9 32.5t9 32.5l-4 13q-16 10 -113 10h-608z" />
<glyph unicode="3" horiz-adv-x="1021" d="M31 162q0 63 43 129.5t104 68.5q20 0 34.5 -11t14.5 -32q0 -18 -19.5 -70t-19.5 -85q0 -61 45.5 -95t110.5 -34q160 0 293 178q123 164 123 332q0 160 -117 159q-61 0 -136 -40.5t-87 -40.5q-33 0 -29 28v13q10 39 133 77q164 51 264 158q113 121 113 279q0 156 -147 155 q-104 0 -189.5 -95t-85.5 -202q0 -59 43 -59q53 0 102.5 30.5t67.5 30.5q12 0 13 -6q0 -35 -103 -84q-94 -45 -135 -45q-53 0 -89 35t-36 86q0 141 162 256q150 104 297 104q111 0 188 -55q86 -64 86 -170q0 -137 -114 -252q-94 -94 -242 -151l4 -2q96 -18 159.5 -85 t63.5 -161q0 -219 -211 -381q-197 -150 -420 -150q-109 0 -186 39q-98 51 -98 148z" />
<glyph unicode="4" horiz-adv-x="1038" d="M61 420q0 16 37 55l828 862q68 70 80 70l8 -16q0 -27 -23 -107l-227 -801h53q39 0 91.5 42t76.5 42q47 0 47 -47q0 -41 -34.5 -80t-75.5 -39h-181q-53 -203 -53 -245q0 -51 39 -74q14 -8 72 -23q39 -10 39 -30q0 -29 -41 -29h-514q-27 0 -27 14q0 29 63 47q43 12 89 23 q63 27 106 141q10 29 47 176h-459q-39 0 -41 19zM188 483h396l168 592z" />
<glyph unicode="5" horiz-adv-x="1028" d="M16 162q0 59 38 113.5t98 54.5q63 0 61 -64q0 -23 -7 -68.5t-7 -70.5q0 -98 112 -98q184 0 334 215q137 199 137 393q0 168 -149 168q-82 0 -152 -62q-37 -33 -96 -114q-43 -61 -61 -62q-18 0 -23 21q0 16 111 332q66 182 129 364q29 86 41 86q10 0 18 -4 q209 -49 344 -49q66 0 151 34.5t79 34.5q6 0 6 -4q0 -31 -62 -86q-158 -141 -350 -141q-96 0 -201 16l-135 -385q131 82 260 82q123 0 202 -70.5t79 -193.5q0 -238 -220.5 -433.5t-461.5 -195.5q-100 0 -178 41q-96 51 -97 146z" />
<glyph unicode="6" horiz-adv-x="1028" d="M113 322q0 211 108 456q115 256 293 420q201 184 418 184q76 0 135 -26q78 -37 78 -105q0 -47 -33 -85t-80 -38q-51 0 -60 50.5t-18 99.5q-20 51 -96 51q-150 0 -291 -219q-92 -143 -166 -356q162 127 318 127q129 0 204.5 -78t75.5 -207q0 -227 -182 -424t-405 -197 q-299 0 -299 347zM256 225q0 -199 168 -198q168 0 289 223q104 193 104 377q0 188 -160 188q-176 0 -297 -215q-104 -184 -104 -375z" />
<glyph unicode="7" horiz-adv-x="995" d="M176 -8q0 82 385 571l488 602h-406q-104 0 -151 -16q-72 -27 -111 -102q-59 -117 -94 -117q-8 0 -8 12q0 20 88 219q86 193 109.5 232t39.5 39t21 -31q4 -41 19 -53.5t58 -12.5l543 -2q43 0 43 -18q2 -12 -76 -119q-385 -537 -551 -852q-66 -125 -129 -250 q-106 -174 -190 -174q-78 0 -78 72z" />
<glyph unicode="8" horiz-adv-x="1019" d="M66 227q0 152 124 279q102 104 265 174q-147 102 -148 250q0 182 162 321q156 133 342 133q115 0 195 -59q90 -65 90 -176q0 -131 -105 -244q-86 -92 -223 -153q184 -121 184 -289q0 -207 -182 -352q-170 -137 -381 -138q-129 0 -219 62q-104 70 -104 192zM225 219 q0 -190 195 -190q133 0 240.5 106.5t107.5 239.5q0 96 -86 172q-39 35 -168 108q-125 -72 -203 -180q-86 -121 -86 -256zM473 1030q0 -90 82 -158q47 -41 160 -92q229 144 229 373q0 180 -164 180q-121 0 -214 -91t-93 -212z" />
<glyph unicode="9" horiz-adv-x="1032" d="M53 131q0 51 35 94t86 43t57 -61q10 -104 13 -113q25 -61 118 -61q154 0 295 213q92 141 164 352q-166 -125 -311 -125q-131 0 -210 76t-79 207q0 229 188.5 428.5t417.5 199.5q287 0 287 -356q0 -213 -110 -457q-113 -256 -291 -415q-201 -182 -420 -183q-86 0 -154 35 q-86 43 -86 123zM406 723q0 -190 153 -191q178 0 295 218q100 183 100 378q0 203 -153 203q-170 0 -291 -227q-104 -195 -104 -381z" />
<glyph unicode=":" horiz-adv-x="526" d="M78 86q0 45 36 80t81 35t74.5 -34t29.5 -81q0 -45 -35 -80t-80 -35q-47 0 -76.5 34t-29.5 81zM274 788q0 45 36 79t81 34t75 -34t30 -79t-35 -79.5t-80 -34.5q-47 0 -77 33.5t-30 80.5z" />
<glyph unicode=";" horiz-adv-x="526" d="M-59 -276q0 2 112.5 98t118.5 164q-29 -4 -43 -4q-35 0 -60.5 30.5t-25.5 67.5q0 49 51 87t105 30q106 -15 110 -115q2 -25 -6 -51q-25 -88 -113 -176q-80 -78 -174 -125q-41 -27 -55 -27q-23 0 -20 21zM274 788q0 45 36 79t81 34t75 -34t30 -79t-35 -79.5t-80 -34.5 q-47 0 -77 33.5t-30 80.5z" />
<glyph unicode="&#x3c;" horiz-adv-x="1196" d="M61 537v106l1057 475v-125l-907 -407l907 -398v-118z" />
<glyph unicode="=" horiz-adv-x="1124" d="M61 356v105h990v-105h-990zM61 715v106h990v-106h-990z" />
<glyph unicode="&#x3e;" horiz-adv-x="1220" d="M82 70v118l909 396l-909 409v125l1059 -477v-106z" />
<glyph unicode="?" horiz-adv-x="778" d="M207 88q0 45 34.5 79t80.5 34q47 0 77.5 -34t30.5 -81q0 -45 -36 -80t-81 -35q-47 0 -76.5 34t-29.5 83zM231 487q0 96 129 224q92 90 215 168q219 139 220 270q0 96 -70 152.5t-168 56.5q-94 0 -158 -49q-70 -55 -69 -146q0 -55 32.5 -91t88.5 -36q55 0 55 29 q0 14 -34 31.5t-34 54.5q0 33 21.5 57.5t54.5 24.5q47 0 75.5 -32t28.5 -79q0 -61 -49 -98t-114 -37q-74 0 -123 48t-49 122q0 109 86 174q80 61 190 62q137 0 233.5 -82t96.5 -217q0 -160 -148 -275q-137 -84 -276 -166q-147 -90 -148 -184q0 -43 37 -68.5t82 -25.5 q53 0 110.5 37t55.5 37q12 0 12 -17q0 -39 -86 -80q-78 -39 -127 -39q-76 0 -123 48.5t-47 125.5z" />
<glyph unicode="@" horiz-adv-x="1941" d="M121 489q0 397 280.5 673t677.5 276q324 0 527 -181q211 -186 211 -505q0 -242 -136 -445q-152 -229 -381 -229q-176 0 -176 176q0 31 4 68l-2 4q-170 -250 -364 -250q-102 0 -160 78q-53 68 -53 174q0 223 143 430q158 227 373 227q162 0 199 -166l4 4l24 92l148 3 l-156 -556q-16 -59 -16 -106q0 -39 18 -76q20 -45 55 -45q111 0 228 137q94 113 143 242t49 254q0 276 -196 451q-188 168 -469 167q-381 0 -629 -274q-242 -266 -242 -651q0 -346 230 -559q221 -207 569 -207q451 0 713 381l41 -19q-121 -199 -324 -309t-436 -110 q-383 0 -637 231q-260 240 -260 620zM700 334q0 -162 134 -162q158 0 280 221q109 195 109 369q0 70 -39 124t-107 54q-141 0 -266 -238q-111 -211 -111 -368z" />
<glyph unicode="A" horiz-adv-x="1419" d="M-154 14q0 23 66 41q90 27 92 29q86 47 168 154l924 1189q70 88 92 89q24 0 24 -95v-8v-1175q0 -102 56 -154q10 -10 59 -26.5t47 -22.5q0 -35 -39 -35h-540q-25 0 -23 16q0 25 91 50.5t106 68.5q20 61 20 393q-498 0 -497 0q-76 -100 -154 -200q-121 -164 -121 -193 q0 -41 57.5 -65t57.5 -35q0 -35 -43 -35h-418q-25 0 -25 14zM547 604q113 -10 201 -10q137 0 245 8l2 600q-201 -272 -448 -598z" />
<glyph unicode="B" horiz-adv-x="1343" d="M-23 23q0 18 66 36q43 12 86 25q74 31 127 221l236 842q31 111 30 147q0 49 -39 74q-18 10 -73 23q-39 10 -39 24q-2 35 41 35h544q416 0 416 -231q0 -174 -139 -293q-123 -104 -305 -140q344 -53 344 -280q0 -47 -17 -107q-57 -207 -262 -311q-174 -88 -411 -88h-578 q-27 0 -27 23zM440 164q2 -104 156 -105q319 0 416 351q18 65 18 124q0 136 -143 181q-77 24 -248 24h-14q-35 0 -56 -71l-114 -408q-14 -53 -15 -96zM618 840q-1 -4 -1 -8q0 -27 59 -27q362 0 448 305q13 43 13 86q0 94 -68 145q-61 45 -160 48h-8q-128 0 -145 -66z" />
<glyph unicode="C" horiz-adv-x="1460" d="M160 475q0 385 295 696.5t675 311.5q182 0 392 -129q4 -4 6 -4q18 0 48 54t56 54q15 0 15 -14q0 -10 -51.5 -231.5t-55.5 -231.5q-10 -29 -41 -29q-16 0 -10 41q0 188 -88 299q-98 123 -281 123q-299 0 -516 -332q-194 -297 -194 -613q0 -187 84 -294q94 -117 274 -117 q176 0 317 107q92 68 185 199q78 106 92 106q20 0 20 -20q0 -12 -57 -187q-55 -166 -70 -198q-23 -53 -43 -54q-20 0 -27 45t-24 45q-8 0 -186 -68.5t-283 -68.5q-242 0 -387 135.5t-145 374.5z" />
<glyph unicode="D" horiz-adv-x="1574" d="M-23 23q0 18 66 36q43 12 86 25q74 31 127 221l238 840q28 97 28 146q0 52 -39 77q-18 12 -71 25q-39 8 -39 22q0 35 39 35h553q649 0 649 -496q0 -207 -100.5 -415.5t-262.5 -335.5q-154 -123 -336 -168q-143 -35 -376 -35h-502q-41 0 -39 0q-20 2 -21 23zM449 176 q0 -74 65 -98q39 -14 129 -15q506 0 686 650q43 153 43 274q0 399 -426 399q-170 0 -186 -55l-285 -1012q-27 -94 -26 -143z" />
<glyph unicode="E" horiz-adv-x="1306" d="M51 61q41 12 84 25q74 29 127 219l236 840q29 104 28 147q0 51 -39 74q-16 10 -71 25q-39 8 -39 26q0 33 41 33h921q62 0 62 -27q0 -90 -53 -284q-6 -33 -21 -33q-18 0 -20 53q-8 147 -131 195q-70 25 -252 26h-13q-138 0 -149 -43l-150 -538h117q193 0 264 133 q14 35 47 100q8 12 19 12q14 0 14 -18q0 -4 -67.5 -250t-75.5 -262q-8 -31 -29 -31q-14 0 -14 15q0 18 4 55t4 53q0 125 -199 125h-55q-37 -2 -49 -2l-119 -420q-20 -72 -20 -121q0 -84 77 -110q43 -14 152 -15q145 0 215 23q88 29 178 123q49 51 103 129l53 78l10 2 q14 0 19 -21q0 -35 -142 -397h-1108q-26 0 -26 21q0 18 67 40z" />
<glyph unicode="F" horiz-adv-x="1142" d="M51 61q41 12 84 25q74 29 127 219l236 840q29 104 28 149q0 51 -39 74q-16 10 -71 23q-37 10 -37 28q0 31 39 31h921q62 0 62 -27q0 -90 -53 -284q-6 -33 -21 -33q-18 0 -20 53q-8 147 -131 195q-70 25 -252 26h-13q-138 0 -149 -43l-150 -538h117q193 0 264 133 q14 35 47 100q8 12 19 12q14 0 14 -18q0 -6 -66.5 -245.5t-75.5 -268.5t-30 -29q-14 0 -14 15q0 18 4 55t4 55q0 123 -195 123h-57q-37 -2 -51 -2l-119 -426q-29 -104 -29 -147q0 -51 39 -74q16 -10 72 -23q37 -10 37 -28q0 -31 -39 -31h-543q-26 0 -26 21q0 18 67 40z" />
<glyph unicode="G" horiz-adv-x="1579" d="M158 471q0 379 303 696.5t682 317.5q164 0 383 -135q18 0 49 54t57 54q15 0 15 -14q0 -12 -51.5 -234.5t-55.5 -228.5q-10 -29 -41 -29q-12 2 -12 43q0 188 -86 299q-94 123 -277 123q-307 0 -526 -346q-192 -305 -192 -634q0 -181 73 -283q86 -117 258 -117 q143 0 262 80t158 215q27 92 27 135q0 55 -43 82q-23 14 -78 29q-43 10 -43 24q0 35 37 35h547q27 0 26 -25q0 -14 -65 -34q-43 -12 -86 -25q-41 -20 -70 -98q-20 -61 -39 -123q-23 -80 -45 -160q-39 -127 -61 -127q-6 0 -26.5 21.5t-37.5 21.5q-20 0 -51 -18 q-184 -104 -471 -105q-236 0 -378 136.5t-142 369.5z" />
<glyph unicode="H" horiz-adv-x="1683" d="M-4 23q0 18 65 36q43 12 86 25q74 29 127 221l236 842q29 104 29 147q0 51 -39 74q-16 10 -72 23q-37 10 -37 28q0 31 39 31h545q27 0 26 -23q0 -18 -65 -36q-43 -12 -86 -25q-76 -31 -127 -221l-94 -348q217 -12 329 -13q209 0 361 11q35 117 67 233q57 207 58 266 q0 51 -39 74q-16 10 -72 23q-37 10 -37 28q0 31 39 31h545q27 0 27 -25q0 -16 -66 -34q-43 -12 -86 -25q-51 -20 -86 -94q-14 -33 -41 -127l-235 -842q-29 -104 -29 -147q0 -51 39 -74q16 -10 72 -23q39 -10 38 -28q0 -31 -40 -31h-545q-27 0 -27 23q0 16 68 38q41 12 84 25 q51 20 86 94q14 33 41 125l114 406q-35 2 -104 2h-510q-53 0 -80 -2l-115 -408q-26 -93 -26 -143q0 -55 39 -78q16 -10 71 -23q39 -10 39 -28q0 -31 -41 -31h-544q-27 0 -27 23z" />
<glyph unicode="I" horiz-adv-x="784" d="M-4 23q0 16 67 38q41 12 84 25q74 29 127 219l236 842q29 104 29 147q0 51 -39 74q-16 10 -72 23q-37 10 -37 28q0 31 39 31h545q26 0 26 -25q0 -16 -65 -34q-43 -12 -86 -25q-51 -20 -86 -94q-14 -33 -41 -127l-236 -842q-29 -104 -28 -147q0 -51 39 -74q16 -10 71 -23 q37 -10 37 -28q0 -31 -39 -31h-544q-27 0 -27 23z" />
<glyph unicode="J" horiz-adv-x="894" d="M-233 -377q0 55 44 101.5t101 46.5q72 0 72 -76q0 -8 -3.5 -28.5t-0.5 -33.5q0 -92 75 -92q223 0 324 361l184 657h-229q-25 0 -29 27q0 29 37 28l238 2q74 250 118 369q94 246 187 338q-88 -18 -150 -18q-61 0 -167.5 26.5t-145.5 26.5q-123 0 -123 -101 q0 -37 56.5 -72.5t56.5 -74.5q0 -90 -76 -90q-53 0 -84 49q-27 41 -27 98v5q0 130 99 222q100 95 237 95q61 0 180 -33t179 -33q49 141 153 142q31 0 55.5 -21.5t24.5 -52.5q0 -45 -61 -92q-82 -61 -93 -76q-4 -4 -61 -178h4l-147 -533h147q23 0 23 -26q0 -20 -41 -29 q-19 -3 -49 -3q-15 0 -33 1q-66 3 -66 4h2l-133 -475q-70 -250 -219 -416q-175 -194 -408 -194h-2q-88 0 -159 30q-90 43 -90 119z" />
<glyph unicode="K" horiz-adv-x="1378" d="M51 59q43 12 86 25q74 31 127 221l236 840q31 109 30 149q0 51 -38 74q-18 12 -72 25q-39 8 -39 24q0 33 39 33h545q27 0 26 -23q0 -18 -65 -36q-43 -12 -86 -25q-74 -31 -127 -221l-121 -440q90 127 272 366q158 186 279 270q168 113 364 113q55 0 92 -32t37 -85 q0 -51 -36.5 -95t-88.5 -44q-57 0 -77.5 87t-81.5 87q-78 0 -226 -127q-104 -92 -188 -190q-102 -121 -150 -181q-123 -152 -137 -184q55 -6 162 -26q123 -35 164 -187q20 -129 43 -258q33 -129 137 -129q53 0 104.5 42t55.5 42q8 0 8 -6q0 -82 -119 -145q-106 -57 -194 -58 q-57 0 -90 23q-127 72 -148 239q-8 133 -16 265q-25 122 -168 122h-2q-8 0 -27 -2q-33 -111 -65 -219q-49 -178 -50 -237q0 -51 39 -74q18 -12 72 -25q39 -8 39 -24q0 -33 -39 -33h-545q-26 0 -26 21q0 20 65 38z" />
<glyph unicode="L" horiz-adv-x="1275" d="M51 61q41 12 84 25q74 29 127 219l236 840q29 104 28 149q0 51 -39 74q-18 10 -71 25q-37 8 -37 24q0 33 39 33h543q27 0 26 -23q0 -18 -65 -36q-43 -12 -86 -25q-51 -20 -86 -94q-14 -33 -41 -127l-238 -838q-20 -72 -20 -119q0 -84 79 -110q43 -14 152 -15 q145 0 215 23q90 29 178 121q47 49 103 133q49 76 53 76l10 2q15 -1 19 -21q0 -35 -142 -397l-250 -2l-202 2h-656q-26 0 -26 21q0 18 67 40z" />
<glyph unicode="M" horiz-adv-x="1927" d="M-49 78q0 96 79 96h3q37 0 70.5 -30.5t50.5 -30.5q84 2 147 237q51 188 248 979q-14 10 -111 45q-84 31 -86 45q0 4 2 6q10 25 39 25h242q127 0 139 -6q29 -14 43 -115l139 -1022l777 1112q20 31 61 31h330q26 0 26 -25q0 -16 -65 -36q-43 -12 -86 -25q-76 -29 -129 -219 l-236 -842q-29 -102 -28 -147q0 -49 39 -74q16 -10 73 -23q39 -10 39 -26q0 -33 -41 -33h-530q-27 0 -27 23q0 18 66 36q43 12 86 25q76 31 129 221l270 967l-866 -1247q-29 -41 -41 -41q-6 0 -21 55l-147 1044q-14 98 -35 154l-229 -891q-98 -381 -289 -381q-53 0 -92 30 t-39 83z" />
<glyph unicode="N" horiz-adv-x="1589" d="M-16 178q33 0 63.5 -32.5t46.5 -32.5q84 0 148 237q31 119 268 963q-27 33 -70 53q-33 10 -63 20q-51 18 -51 29q0 35 39 35h241q106 0 117 -20l500 -1082q61 221 186 666q57 193 92 268q72 147 185 201q39 18 75 18q53 0 92 -30.5t39 -81.5q0 -39 -23.5 -71t-62.5 -32 q-31 0 -67.5 37t-59.5 37h-1q-91 0 -160 -246l-312 -1100q-16 -61 -41 -61q-16 0 -30 27q-2 2 -64 137l-506 1097l-227 -868q-98 -379 -318 -379q-126 0 -126 105q0 106 90 106z" />
<glyph unicode="O" horiz-adv-x="1503" d="M217 514q0 348 248 651q262 319 602 320q231 0 369 -168q129 -155 129 -391q0 -346 -250 -645q-260 -313 -600 -314q-229 0 -367 162q-131 152 -131 385zM446 430q0 -160 60 -264q74 -131 221 -131q295 0 469 366q139 293 139 629q0 158 -59 260q-72 123 -219 123 q-272 0 -457 -369q-154 -309 -154 -614z" />
<glyph unicode="P" horiz-adv-x="1196" d="M45 59q43 12 86 25q74 31 127 221l238 840q29 100 28 147q0 51 -39 74q-18 10 -73 25q-39 10 -39 26q0 33 41 33h587q152 0 263 -80q122 -87 122 -227v-2q0 -33 -8 -70q-90 -409 -654 -409h-3q-82 0 -148 8l-102 -365q-29 -104 -29 -149q0 -51 39 -74q16 -10 72 -23 q37 -10 37 -26q0 -33 -37 -33h-547q-26 0 -26 21q0 20 65 38zM594 750q70 -12 106 -13q348 0 443 334q20 72 20 131q0 188 -260 189q-127 0 -143 -58z" />
<glyph unicode="Q" horiz-adv-x="1503" d="M158 -301q0 45 75 88q63 35 201.5 92.5t204.5 95.5l-25 7q-186 47 -292 194q-104 141 -105 336q0 350 248 653q260 319 602 320q231 0 369 -166q129 -158 129 -395q0 -254 -140 -494q-139 -246 -360 -364q-59 -33 -182 -68q-68 -20 -170 -61l-168 -70h26 q160 0 437.5 -144.5t404.5 -144.5q84 0 156 49q37 27 96 92q45 47 64 48q16 -1 14 -15q0 -8 -4 -14q-188 -328 -424 -328q-123 0 -287 98q-139 92 -276 187q-160 98 -273 98q-78 0 -166 -69.5t-106 -69.5q-49 0 -49 45zM506 172q72 -135 223 -135q264 0 451 377 q155 315 155 612q0 160 -57 262q-72 127 -219 127q-270 0 -455 -364q-155 -303 -155 -603q0 -170 57 -276z" />
<glyph unicode="R" horiz-adv-x="1458" d="M-23 23q0 18 68 36q41 10 84 23q53 23 86 96q14 31 41 125l236 840q29 104 28 149q0 49 -39 74q-16 8 -71 23q-37 10 -37 26q0 33 41 33q82 0 221 2q164 2 221 2h23q221 0 333 -37q203 -66 203 -250q0 -193 -149 -325q-137 -121 -336 -152q78 -59 121 -221 q33 -129 65 -258q47 -123 144 -123q53 0 105 43t56 43l9 -6q0 -82 -119 -146q-106 -57 -195 -57q-53 0 -90 21q-125 72 -156 258q-18 150 -34 297q-36 137 -175 137h-8l-82 -2l-102 -371q-29 -106 -29 -147q0 -51 39 -74q18 -10 72 -25q39 -10 39 -26q0 -33 -39 -33h-547 q-27 0 -27 25zM596 762q59 -8 94 -8h5q367 0 462 325q17 56 17 112q0 195 -288 195h-3q-113 0 -125 -40z" />
<glyph unicode="S" horiz-adv-x="1105" d="M2 16q0 10 47 166t60 187q33 92 43 92q31 0 30 -49q0 -150 102.5 -260.5t250.5 -110.5q123 0 220 87t97 208q0 115 -125 235q-115 104 -229 211q-125 133 -125 283q0 184 141 305q135 115 324 115q139 0 247 -60q53 -29 56 -28q12 0 38.5 36.5t49.5 36.5q10 0 10 -10 q0 -4 -2 -10q0 -12 -41 -176t-49 -186.5t-23 -22.5q-20 0 -30 41q-4 27 -9 55q-10 115 -75.5 181.5t-178.5 66.5q-117 0 -195.5 -69.5t-78.5 -184.5q0 -113 127 -233q119 -106 240 -213q127 -139 127 -295q0 -201 -160 -330q-150 -121 -356 -121q-96 0 -195 25 q-119 29 -174 80l-14 18q-8 12 -17 12q-31 0 -59.5 -50t-46.5 -50q-25 0 -27 18z" />
<glyph unicode="T" horiz-adv-x="1380" d="M281 1249q0 141 129 185q60 22 208 22h13q393 0 577 -12q90 -8 267 -21h11q79 0 81 54q0 25 -38 47t-40 47v10q0 60 67 64h5q38 0 67 -26q31 -28 31 -69q0 -217 -330 -217q-25 0 -231 13q-35 -43 -56 -115l-260 -928q-29 -104 -28 -145q0 -51 39 -76q16 -8 71 -23 q39 -10 39 -28q0 -31 -41 -31h-545q-27 0 -26 23q0 18 65 36q43 12 86 25q51 20 86 94q14 33 41 127l267 940q6 23 6 45q0 29 -11 60q-41 2 -184 14q-117 10 -186 10q-90 0 -90 -49q0 -25 39 -48.5t41 -47.5v-10q0 -60 -68 -64h-5q-38 1 -66 27q-30 28 -31 67z" />
<glyph unicode="U" horiz-adv-x="1595" d="M260 301q0 84 31 195l182 651q31 111 31 147q0 51 -39 74q-10 6 -72 23q-39 10 -39 34q0 25 39 25h543q25 0 25 -25q0 -18 -66 -36q-41 -10 -84 -23q-76 -31 -129 -221l-174 -623q-31 -111 -31 -196q0 -272 279 -273q434 0 596 576l145 518q29 102 29 147q0 49 -39 74 q-18 12 -72 25q-39 8 -39 22q0 35 39 35h418q25 0 25 -25q0 -18 -66 -36q-41 -10 -82 -23q-76 -33 -131 -221l-113 -385q-113 -387 -249 -557q-193 -240 -537 -240q-420 0 -420 338z" />
<glyph unicode="V" horiz-adv-x="1529" d="M299 1413q0 37 41 37h539q25 0 22 -16q0 -27 -88 -50q-94 -25 -108 -65q-20 -55 -21 -234l-2 -833q238 315 709 948q65 87 65 124q0 34 -56.5 56.5t-56.5 36.5q0 33 41 33h420q25 0 25 -16q0 -20 -68 -39q-88 -27 -90 -27q-82 -43 -168 -156l-925 -1189q-72 -88 -93 -89 q-24 0 -24 95v8q0 88 2 264v266v326q0 238 -2 319q-2 106 -55 156q-16 14 -48 23q-37 10 -48 16z" />
<glyph unicode="W" horiz-adv-x="2156" d="M315 1413q0 37 39 37h494q23 0 22 -14q0 -29 -82 -52q-88 -25 -102 -67q-18 -51 -18 -232l-2 -835l540 786v121q0 162 -45 209q-16 16 -47 25q-37 10 -44 13t-13 9q0 37 39 37h495q23 0 21 -16q0 -27 -84 -50.5t-98 -64.5q-18 -55 -19 -197v-874l651 954q59 88 60 125 q0 31 -52.5 53.5t-52.5 36.5q0 33 41 33h383q25 0 25 -16q0 -23 -62 -41q-80 -25 -84 -27q-86 -53 -157 -154q-279 -399 -848 -1189q-66 -88 -84 -89q-23 0 -23 103l-2 872q-211 -297 -637 -886q-66 -88 -86 -89q-20 0 -20 103q0 88 2 264v266v326q0 158 -4 319 q-2 113 -45 156q-14 16 -45 23q-37 8 -46.5 13t-9.5 9z" />
<glyph unicode="X" horiz-adv-x="1523" d="M-41 25q0 16 82 45q104 37 106 39q66 37 172 143l449 446l-205 510q-47 119 -104 160q-6 4 -64 25q-49 16 -49 28q0 29 39 29h563q25 0 25 -25q0 -16 -94.5 -43.5t-94.5 -78.5q0 -27 170 -424l344 350q66 68 66 102q0 31 -61.5 51.5t-61.5 36.5q2 31 37 31h430 q27 0 27 -25q0 -16 -82 -47q-100 -37 -101 -37q-84 -49 -178 -143l-391 -393q70 -197 104 -285q61 -160 121 -278q20 -43 44 -88t61 -72q6 -4 65 -23q49 -16 47 -28q0 -31 -39 -31h-561q-27 0 -26 25q0 16 94 43.5t94 78.5q0 41 -188 482l-406 -406q-63 -63 -63 -102 q0 -31 62.5 -53.5t62.5 -38.5q0 -29 -39 -29h-430q-27 0 -27 25z" />
<glyph unicode="Y" horiz-adv-x="1415" d="M219 1024q0 23 35 109q133 331 380 331h1q143 0 211 -133q51 -102 51 -260q0 -70 -8 -209q39 80 121 228q225 383 520 383q66 0 114 -44t48 -110q0 -41 -28 -71.5t-69 -30.5q-57 0 -99 86t-103 86q-72 0 -185 -127q-76 -86 -139 -189q-106 -172 -178 -373 q-39 -109 -119 -395q-29 -102 -29 -149q0 -49 39 -74q18 -12 72 -25q39 -8 39 -22q0 -35 -39 -35h-545q-27 0 -26 23q0 18 65 38q43 10 84 23q78 31 129 221q98 354 111 412q69 272 69 405q0 100 -41 160q-47 70 -139 70q-188 0 -282 -262q-33 -90 -52 -91q-8 0 -8 25z" />
<glyph unicode="Z" horiz-adv-x="1245" d="M-31 -47q0 45 70 139q180 242 584 617q473 438 610 594q-94 -35 -287 -35q-59 0 -177 13t-177 13q-154 0 -195 -131q-6 -33 -22 -33t-17 41q0 152 86 234t238 82q96 0 246.5 -50.5t224.5 -50.5q84 0 154.5 55.5t107.5 55.5h2q29 0 29 -24q0 -84 -598 -654 q-643 -614 -723 -756q80 35 213 35q121 0 359.5 -128t357.5 -128q61 0 160.5 56.5t107.5 56.5q10 0 6 -8v-13q-25 -104 -168 -199t-254 -95q-106 0 -215 86q-88 80 -174 159q-96 86 -170 86q-63 0 -168.5 -29.5t-152.5 -29.5q-57 0 -58 41z" />
<glyph unicode="[" horiz-adv-x="626" d="M-31 -375l547 1946h404l-29 -98l-252 -5l-489 -1736l251 -6l-28 -101h-404z" />
<glyph unicode="\" horiz-adv-x="661" d="M156 1425l110 2l430 -1601q-31 2 -110 0z" />
<glyph unicode="]" horiz-adv-x="626" d="M-147 -375l26 101l254 6l490 1736l-254 5l28 98h404l-547 -1946h-401z" />
<glyph unicode="^" horiz-adv-x="1529" d="M408 776l415 651h148l409 -649l-135 -2l-350 510l-352 -508z" />
<glyph unicode="_" horiz-adv-x="1034" d="M-10 -209h1052v-115h-1052v115z" />
<glyph unicode="`" horiz-adv-x="815" d="M451 1323q0 39 34.5 68.5t73.5 29.5q57 0 84 -69l127 -330l-51 -12l-238 239q-31 31 -30 74z" />
<glyph unicode="a" d="M86 215q0 205 178 453q190 262 387 262q84 0 142 -74q16 61 65 62q94 0 94 -33q0 -6 -47 -148q-182 -547 -182 -628q0 -39 29 -39q57 0 131.5 104.5t77.5 104.5q28 0 28 -27v-4q-2 -4 -2 -6q-43 -104 -113 -179q-88 -90 -184 -90q-110 0 -110 131q0 37 6 70 q-137 -201 -299 -201q-96 0 -152 76q-49 66 -49 166zM248 195q0 -133 90 -134q127 0 254 258q86 176 135 373q14 58 14 76q0 41 -27.5 70.5t-68.5 29.5q-129 0 -268 -276q-129 -250 -129 -397z" />
<glyph unicode="b" horiz-adv-x="952" d="M145 168q0 84 27 170l270 909q6 20 7 39q0 51 -65 55.5t-65 20.5q0 18 60 41q14 2 141 37q119 31 125 30q25 0 21 -36q0 -31 -17 -84l-151 -494q84 74 178 74q125 0 194 -92q66 -84 66 -213q0 -233 -174 -441q-184 -217 -414 -217q-109 0 -157 45q-46 43 -46 147v9z M303 113q0 -39 31 -64.5t72 -25.5q141 0 264 262q106 229 106 391q0 180 -123 180q-139 0 -254 -309q-96 -260 -96 -434z" />
<glyph unicode="c" horiz-adv-x="720" d="M102 248q0 205 156 434q170 248 365 248q61 0 113 -36t52 -95q0 -33 -23.5 -59.5t-53.5 -26.5q-57 0 -64.5 75.5t-38.5 75.5q-123 0 -239 -268q-102 -236 -103 -383q0 -164 109 -164q72 0 137 66q41 39 94 118q43 66 53 66q27 0 27 -27v-4q-2 -2 -2 -4 q-41 -113 -139 -196q-106 -92 -217 -93q-111 0 -170 84q-55 74 -56 189z" />
<glyph unicode="d" horiz-adv-x="1003" d="M90 225q0 205 176 447q188 258 385 258q55 0 135 -56q119 379 119 412q0 51 -64.5 55.5t-64.5 20.5q0 18 60 41q14 2 141 37q119 31 125 30h1q19 0 20 -26q0 -5 -1 -10q0 -31 -16 -84l-352 -1145q-14 -47 -15 -74q0 -55 39 -55q51 0 105 63q29 35 78 119q37 63 49 64 q29 -2 24 -33v-8q-27 -104 -119 -199q-100 -104 -200 -105q-66 0 -106 42t-42 110q-123 -154 -264 -154q-102 0 -160 76q-53 70 -53 174zM252 182q0 -131 102 -131q156 0 301 383q97 254 97 342q0 39 -26 65.5t-64 26.5q-139 0 -281 -278q-129 -250 -129 -408z" />
<glyph unicode="e" horiz-adv-x="741" d="M145 236q0 197 162 436q176 258 363 258q63 0 105 -39t42 -100q0 -250 -485 -433q-23 -90 -23 -151q0 -158 109 -158q72 0 137 66q41 39 94 118q43 66 53 66q27 0 27 -27v-4q-2 -2 -2 -4q-41 -113 -139 -196q-106 -92 -217 -93q-111 0 -170 78q-55 70 -56 183zM356 436 q121 49 222 142q124 113 124 217q0 67 -59 67h-2q-88 0 -182 -172q-66 -121 -103 -254z" />
<glyph unicode="f" horiz-adv-x="604" d="M-324 -432q0 92 84 92q57 0 72 -45q4 -16 4 -88q0 -47 43 -47q86 0 152 155q29 68 71 232l250 954h-213q-18 0 -18 23q0 43 39 43h205q82 264 159 387q133 215 330 215q72 0 133 -31q74 -36 74 -102q0 -31 -21.5 -54.5t-52.5 -23.5q-49 0 -77.5 71.5t-75.5 71.5 q-106 0 -168 -125q-23 -43 -72 -215l-55 -192h202q27 0 27 -25q0 -41 -45 -41h-201l-205 -774q-72 -270 -141 -399q-127 -231 -317 -232q-72 0 -127.5 41t-55.5 109z" />
<glyph unicode="g" horiz-adv-x="890" d="M-70 -297q0 76 63.5 141.5t139.5 65.5q51 0 51 -27l-54 -55t-54 -111q0 -102 96 -161q82 -49 193 -50q113 0 202 48q109 57 109 159q0 86 -154 142q-143 45 -289 90q-154 59 -153 159q0 139 219 187q-115 84 -115 225q0 158 113 286t268 128q119 0 199 -86q84 84 160 84 q41 0 71.5 -23.5t30.5 -62.5q0 -70 -65 -70q-33 0 -58.5 33t-44.5 33q-23 0 -65 -31q37 -74 36 -148q0 -145 -88 -258.5t-229 -144.5q-88 -10 -174 -20q-129 -23 -129 -80t153 -93q236 -55 289 -79q154 -70 154 -205q0 -162 -160 -256q-135 -80 -309 -80q-147 0 -262 55 q-143 72 -144 205zM330 440q0 -143 108 -143q113 0 187 168q61 137 61 268q0 137 -117 137q-102 0 -176 -170q-63 -141 -63 -260z" />
<glyph unicode="h" horiz-adv-x="991" d="M74 0q381 1264 381 1286q0 51 -64.5 55.5t-64.5 20.5q0 25 59 39q6 2 139 37q121 33 127 32q25 0 21 -36q0 -31 -17 -84l-200 -641q170 221 317 221q152 0 152 -148q0 -70 -70 -282q-47 -147 -96 -295q-12 -45 -13 -76q0 -53 39 -53q51 0 105 63q29 35 78 119 q37 63 49 64q25 -2 25 -25q0 -4 -1 -8v-8q-27 -104 -118 -199q-100 -104 -201 -105q-131 0 -131 152q0 61 26 158q43 129 86 256q61 180 62 248q0 51 -49 51q-86 0 -195 -142q-78 -102 -133 -223q-45 -100 -147 -477h-166z" />
<glyph unicode="i" horiz-adv-x="585" d="M133 668q0 8 25 65q84 193 233 193q137 0 137 -109q0 -68 -79 -297q-104 -311 -107 -315q-12 -43 -12 -76q0 -53 39 -53q51 0 104 63q29 35 78 119q37 63 49 64q29 -2 25 -33v-8q-27 -104 -119 -199q-100 -104 -201 -105q-135 0 -135 146q0 66 31 164q2 4 96 266 q76 211 76 242q0 39 -29 39q-51 0 -114.5 -97.5t-75.5 -97.5q-20 0 -21 29zM449 1272q0 39 30.5 69.5t71.5 30.5t71.5 -29.5t30.5 -70.5q0 -43 -29.5 -72t-72.5 -29t-72.5 29t-29.5 72z" />
<glyph unicode="j" horiz-adv-x="546" d="M-307 -449q0 35 23.5 65t58.5 30q51 0 63 -45q2 -41 4 -84t37 -43q82 0 146 139q27 59 73 217l258 875q18 63 19 90q0 39 -29 39q-51 0 -114.5 -97.5t-75.5 -97.5q-20 0 -21 29q0 10 27 71q80 186 231 187q139 -1 139 -101q0 -70 -61 -284l-170 -596q-68 -236 -137 -346 q-117 -182 -301 -183q-68 0 -119 35t-51 100zM436 1274q0 39 29 67.5t70 28.5t71.5 -28.5t30.5 -69.5t-29.5 -69.5t-70.5 -28.5t-71 29.5t-30 70.5z" />
<glyph unicode="k" horiz-adv-x="991" d="M74 0q381 1264 381 1286q0 51 -64.5 55.5t-64.5 20.5q0 20 61 41q10 2 139 37q119 31 125 30q27 0 21 -32q0 -41 -92 -342q-57 -176 -113 -353q133 160 289 160q59 0 110.5 -34.5t51.5 -90.5q0 -100 -125 -186q-104 -61 -209 -121q135 -53 135 -180q0 -33 -15.5 -98.5 t-15.5 -100.5q0 -41 31 -41q55 0 120.5 89t73.5 89q19 0 19 -20q0 -70 -92 -154t-172 -84q-135 0 -136 119q0 47 25 138t25 134q0 59 -74 78l-154 -69q-39 -123 -114 -371h-166zM373 440q387 158 387 336q0 59 -66 60q-104 0 -205 -150q-76 -113 -116 -246z" />
<glyph unicode="l" horiz-adv-x="544" d="M127 129q0 70 27 158l288 960q6 20 7 39q0 51 -65 55.5t-65 20.5q0 25 60 39q268 68 266 67h1q20 0 21 -25q0 -4 -1 -9q0 -31 -17 -84l-352 -1145q-14 -47 -14 -74q0 -55 39 -55q51 0 104 63q29 35 78 119q37 63 49 64q29 -2 25 -33v-8q-27 -104 -119 -199 q-100 -104 -199 -105q-133 0 -133 152z" />
<glyph unicode="m" horiz-adv-x="1497" d="M102 641l2 8q27 102 105 187q88 92 186 92q109 0 109 -129q0 -45 -21 -131q66 100 148 172q106 90 200 90q150 0 150 -148q0 -20 -2 -41q147 188 295 189q151 0 151 -146q0 -72 -69 -282q-96 -295 -96 -297q-12 -45 -13 -76q0 -53 39 -53q51 0 105 63q29 35 77 119 q37 63 50 64q26 -2 26 -31l-2 -10q-20 -102 -117 -201q-102 -102 -202 -103q-131 0 -131 152q0 61 26 158q43 127 86 256q61 178 62 248q0 51 -47 51q-250 0 -467 -842l-162 2q29 94 86 285q43 129 88 258q59 186 59 246q0 51 -49 51q-147 0 -317 -365q-45 -96 -84 -235 q-31 -121 -64 -242h-162q37 106 125 414q96 336 97 372q0 35 -31 35q-55 0 -105 -67q-16 -20 -65 -113q-12 -25 -35 -25q-31 0 -31 25z" />
<glyph unicode="n" horiz-adv-x="1067" d="M102 641l2 8q27 102 105 187q88 92 186 92q109 0 109 -129q0 -45 -21 -131q63 98 154 172q111 90 205 90q151 0 151 -146q0 -72 -69 -282q-96 -295 -97 -297q-12 -45 -12 -76q0 -53 39 -53q51 0 104 63q29 35 78 119q37 63 49 64q25 -2 25 -26v-7t-2 -8 q-27 -104 -117 -199q-100 -104 -200 -105q-131 0 -132 152q0 66 27 158q43 127 88 256q59 178 60 248q0 51 -50 51q-86 0 -194 -142q-78 -102 -133 -223q-45 -100 -148 -477l-162 -2q37 106 125 414q96 336 97 374q0 35 -31 35q-55 0 -105 -67q-16 -20 -65 -113 q-12 -25 -35 -25q-31 0 -31 25z" />
<glyph unicode="o" horiz-adv-x="888" d="M129 309q0 211 129 406q145 217 346 217q133 0 205 -107q63 -94 63 -233q0 -213 -127 -404q-143 -215 -346 -215q-133 0 -204 107q-66 92 -66 229zM281 209q0 -178 120 -178q127 0 234 276q88 233 88 393q0 168 -113 168q-129 0 -237 -272q-92 -231 -92 -387z" />
<glyph unicode="p" d="M-215 -530q0 18 65 36q43 12 87 25q51 20 83 94q12 29 43 127l322 1061q-119 -115 -199 -235q-18 -35 -57 -97q-16 -23 -43 -22q-25 0 -25 16q0 4 5 8q37 102 187 270.5t163 207.5l63 210q18 59 99 62h5q58 0 58 -41t-123 -379q88 117 197 117q125 0 194 -92 q66 -84 66 -213q0 -211 -158 -420q-168 -225 -373 -225q-90 0 -131 69q-35 -106 -67 -215q-51 -168 -51 -229q0 -51 38 -76q18 -10 72 -25q39 -8 39 -24q0 -33 -39 -33h-493q-27 0 -27 23zM352 158q0 -45 29 -74t76 -29q145 0 260 246q98 209 98 375q0 180 -123 180 q-174 0 -309 -553q-14 -47 -31 -145z" />
<glyph unicode="q" horiz-adv-x="917" d="M109 258q0 197 145 424q162 250 346 250q123 0 184 -127q20 43 39 86q29 47 70 47q63 0 61 -43v-14l-321 -1129q-31 -109 -31 -149q0 -51 39 -74q18 -12 72 -25q39 -8 39 -24q0 -33 -39 -33h-494q-27 0 -26 23q0 18 65 36q43 12 86 25q53 20 86 94q14 31 41 127l90 322 q-109 -98 -219 -99q-117 0 -178 86q-55 76 -55 197zM276 213q0 -63 27 -109q33 -53 92 -53q125 0 238 277q98 239 98 391q0 141 -110 141q-129 0 -244 -264q-100 -231 -101 -383z" />
<glyph unicode="r" horiz-adv-x="763" d="M102 641l2 8q27 102 105 187q88 92 186 92q109 0 109 -125q0 -39 -15 -96q-14 -49 -26 -97q156 317 293 318q45 0 73.5 -32t28.5 -77q0 -37 -21.5 -67.5t-56.5 -30.5t-53 43t-49 43q-113 0 -369 -807h-159q61 207 122 416q96 330 97 370q0 35 -31 35q-55 0 -105 -67 q-16 -20 -65 -113q-12 -25 -35 -25q-31 0 -31 25z" />
<glyph unicode="s" horiz-adv-x="655" d="M37 150q0 33 20.5 60.5t55.5 27.5q57 0 67 -50.5t23.5 -101.5t83.5 -51q66 0 112.5 37t46.5 98q0 76 -113.5 243t-113.5 263q0 111 84 184q82 68 195 68q70 0 127 -33q71 -37 71 -100q0 -80 -75 -80q-51 0 -64.5 75.5t-75.5 75.5q-51 0 -90 -30.5t-39 -79.5 q0 -59 115 -227.5t115 -272.5q0 -125 -92.5 -204t-219.5 -79q-86 0 -153 45q-80 49 -80 132z" />
<glyph unicode="t" horiz-adv-x="585" d="M127 102q0 88 201 719q10 0 -52 -4q-41 -2 -63 4q-33 6 -33 25q0 45 82 45q18 0 49 -2t39 -2q35 121 107 327q23 53 90 54q59 0 59 -39q0 -18 -100 -340q-12 0 59 4q18 1 33 1q30 0 49 -3q39 -7 39 -25q0 -43 -45 -43h-156q-53 -178 -106 -354q-86 -291 -86 -344 q0 -45 39 -45q66 0 151.5 119.5t94.5 119.5q27 0 26 -20v-6q-2 -6 -2 -8q-152 -309 -340 -310q-57 0 -96 36t-39 91z" />
<glyph unicode="u" horiz-adv-x="1050" d="M100 641l2 8q27 102 105 187q88 92 186 92q49 0 84 -36t35 -87v-19q-25 -135 -96 -366q-84 -270 -84 -303q0 -49 51 -49q147 0 301 352q66 147 170 485h164q-2 -14 -64 -217q-51 -160 -147 -483q-12 -45 -12 -76q0 -53 39 -53q51 0 104 63q29 35 78 119q37 63 49 64 q25 -2 25 -26v-7v-8q-27 -104 -119 -199q-100 -104 -201 -105q-137 0 -137 140q0 37 10 78l-4 6l12 30q-170 -256 -332 -256q-63 0 -104 33q-36 29 -36 77q0 7 1 15l2 21q8 74 74 285q31 94 90 282q20 68 21 98q0 35 -31 35q-55 0 -105 -67q-16 -20 -65 -113 q-12 -25 -35 -25q-31 0 -31 25z" />
<glyph unicode="v" horiz-adv-x="913" d="M84 694q0 49 43 107.5t88 66.5q12 2 41 2q53 0 114.5 -25.5t75.5 -25.5q37 0 59.5 56.5t49.5 56.5q37 0 37 -25q0 -18 -64 -137q-80 -147 -118 -242q-63 -160 -64 -280q0 -178 113 -178q141 0 254 209q96 182 96 337q0 41 -25.5 119t-25.5 119q0 76 65 76q95 0 95 -182 q0 -236 -146 -488q-166 -285 -385 -285q-92 0 -145.5 56.5t-53.5 148.5q0 193 250 551q-20 -6 -43 -6q-37 0 -97 33t-77 33q-49 0 -77 -62.5t-40 -62.5q-21 0 -21 19q0 4 1 9z" />
<glyph unicode="w" horiz-adv-x="1437" d="M84 694q0 49 43 107.5t88 66.5q12 2 37 2q51 0 114.5 -25.5t79.5 -25.5q37 0 59.5 56.5t49.5 56.5q37 0 37 -25q0 -18 -66 -149q-84 -168 -123 -260q-65 -164 -65 -264q0 -66 27 -111q31 -53 90 -53q63 0 141 63q63 51 109 117q-16 98 -17 223q0 438 201 438 q115 0 115 -114q0 -145 -173 -451q47 -268 179 -268q135 0 233 196q84 166 84 318q0 45 -21.5 130t-21.5 128q0 80 64 80q92 0 92 -172q0 -231 -133 -488q-154 -297 -361 -297q-84 0 -142.5 59.5t-76.5 145.5q-152 -201 -344 -201q-96 0 -148.5 57.5t-52.5 155.5 q0 215 256 541q-20 -6 -43 -6q-37 0 -97 33t-77 33q-49 0 -77 -62.5t-40 -62.5q-21 0 -21 19q0 4 1 9zM817 520q0 -27 2 -78q121 236 121 330q0 68 -37 68q-47 0 -72 -135q-14 -87 -14 -166v-19z" />
<glyph unicode="x" horiz-adv-x="933" d="M16 70q0 47 35 127q39 90 76 90q14 0 14 -21q0 -14 -19.5 -65t-19.5 -80q0 -45 52 -45q37 0 286 362q0 84 -20 205q-29 160 -72 160q-53 0 -93 -87t-54 -87q-20 0 -21 39q0 74 79 167t153 93q92 0 127 -119q18 -98 34 -195q111 162 136 191q102 129 172 129 q39 0 67.5 -28.5t28.5 -69.5q0 -39 -33 -117q-37 -86 -65 -86q-18 0 -19 33q0 18 12.5 59t12.5 61q0 45 -39 45q-55 0 -258 -325q33 -227 33 -230q37 -174 94 -174q61 0 113.5 92.5t62.5 92.5q16 0 16 -27q0 -68 -90 -175.5t-158 -107.5q-156 0 -200 347q-76 -104 -152 -207 q-117 -141 -188 -142q-43 0 -73 26t-30 69z" />
<glyph unicode="y" horiz-adv-x="813" d="M-129 -502q0 31 22.5 52.5t51.5 21.5q20 0 62 -10.5t63 -10.5q111 0 225 193q102 172 102 326q0 135 -47 403q-57 324 -119 324q-55 0 -79.5 -129t-34.5 -129q-27 0 -27 45q0 123 39 219q53 129 158 129q96 0 153 -174q43 -125 68 -350q10 -135 22 -273q186 342 187 514 q0 53 -36 119t-36 96q0 27 19.5 47.5t46.5 20.5q102 0 102 -172q0 -168 -117 -443q-90 -207 -217 -413q-301 -487 -491 -488q-43 0 -76 19q-41 25 -41 63z" />
<glyph unicode="z" horiz-adv-x="772" d="M53 8q0 55 117 189q190 217 254 284q150 164 264 273q-66 -16 -98 -17q-39 0 -117 14.5t-119 14.5q-59 0 -72.5 -69.5t-31.5 -69.5q-33 0 -33 55q0 90 52.5 165t138.5 75q59 0 153 -56.5t137 -56.5q49 0 64.5 59.5t54.5 59.5q43 0 43 -41q0 -53 -285 -352 q-336 -352 -362 -390q29 6 57 7q80 0 218.5 -72t197.5 -72q57 0 86 39q12 16 35 72q16 39 37 39q22 0 22 -49q0 -104 -59 -183q-63 -86 -164 -86q-82 0 -164 66l-125 121q-67 65 -113 65h-1q-51 0 -80 -59.5t-64 -59.5q-43 0 -43 35z" />
<glyph unicode="{" horiz-adv-x="802" d="M186 539l21 65q117 18 175 75.5t91 176.5l78 274q51 182 104 240q74 82 244 82q32 0 98 -4l-16 -53q-135 0 -201 -64q-51 -53 -90 -194l-63 -234q-39 -145 -97 -213q-68 -80 -202 -117q143 -51 143 -172q0 -86 -62.5 -270t-62.5 -268q0 -117 172 -117l-12 -51 q-35 -2 -107 -6q-201 -4 -200 129q0 84 66.5 292.5t66.5 288.5q0 115 -146 140z" />
<glyph unicode="|" horiz-adv-x="671" d="M262 -455v1885h123v-1885h-123z" />
<glyph unicode="}" horiz-adv-x="802" d="M-76 -311l19 63q133 2 196 66q55 53 92 188l66 236q39 141 88 207q61 86 184 122q-119 43 -118 160q0 86 60 271.5t60 267.5q0 119 -170 119l19 65q70 4 104 4q98 0 144 -20q70 -31 69 -115q0 -86 -66.5 -294t-66.5 -288q1 -108 146 -131l-21 -80q-117 -14 -175 -70.5 t-91 -172.5l-76 -275q-51 -184 -111 -245q-78 -82 -253 -82q-33 0 -99 4z" />
<glyph unicode="~" horiz-adv-x="1441" d="M293 729q139 176 291 176q92 0 250.5 -73.5t226.5 -73.5q109 0 250 149l49 -104q-141 -172 -295 -172q-82 0 -236.5 71.5t-242.5 71.5q-111 0 -244 -149z" />
<glyph unicode="&#xa1;" horiz-adv-x="550" d="M35 -459q0 55 88 273q61 143 121 286q51 154 153 461h45q-39 -154 -104 -461q-18 -127 -37 -254q-25 -164 -51 -247q-45 -143 -141 -144q-74 0 -74 86zM375 809q0 45 35.5 80t81.5 35q45 0 74.5 -34t29.5 -81q0 -45 -35 -80t-80 -35q-47 0 -76.5 34t-29.5 81z" />
<glyph unicode="&#xa2;" horiz-adv-x="817" d="M102 248q0 199 152 424q162 244 350 256l41 127l29 26h57l-53 -159q110 -31 110 -123q0 -33 -23.5 -59.5t-53.5 -26.5q-68 0 -68 100l-250 -762q63 8 125 72q39 39 90 115q41 61 49 61q29 0 29 -27v-4q-2 -2 -2 -4q-35 -98 -123 -180q-94 -88 -190 -104l-78 -236l-70 2 l74 231q-96 12 -150 95q-45 74 -45 176zM266 215q0 -115 60 -152l258 797q-115 -29 -224 -278q-94 -225 -94 -367z" />
<glyph unicode="&#xa3;" horiz-adv-x="1343" d="M-37 80q0 86 92 137q76 45 168 45q109 0 219 -47q82 168 113 436l-270 2l20 72h260q68 270 230 469q195 242 438 242q94 0 156 -35q77 -45 77 -131q0 -57 -28 -101q-35 -49 -90 -51t-56 51q0 14 8.5 45t8.5 48q0 119 -146 118q-184 0 -291 -250q-47 -109 -110 -405h323 l-20 -70l-320 -2q-53 -272 -223 -465q266 -82 365 -82q63 0 137 50q47 31 109 90q51 49 57 49q14 0 14 -16q0 -10 -10 -41q-41 -119 -152.5 -202t-234.5 -83q-88 0 -189 49q-18 10 -169 100q-150 -129 -328 -129q-57 0 -103 25q-55 29 -55 82zM49 86q0 -63 90 -63 q127 -1 254 116q-88 59 -182 60q-59 0 -107 -27q-55 -31 -55 -86z" />
<glyph unicode="&#xa5;" horiz-adv-x="1292" d="M219 1024q0 23 35 109q133 332 381 331q143 0 211 -133q51 -102 51 -260q0 -70 -8 -209q39 82 121 228q178 256 254 315q88 68 266 68q66 0 114 -44t48 -110q0 -41 -28 -71.5t-69 -30.5q-57 0 -99 86t-103 86q-109 0 -277 -244q-131 -193 -192 -352h338l-23 -78h-344 q-10 -29 -30.5 -89.5t-30.5 -90.5h356l-21 -76h-354q-35 -121 -72 -303q0 -49 39 -74q16 -10 72 -25q39 -8 39 -24q0 -33 -39 -33h-545q-27 0 -26 23q0 18 65 38q41 10 82 23q66 27 115 166q29 102 59 207h-377l21 78h377q16 61 47 180h-377l22 78h371q53 217 55 331 q0 96 -41 158q-47 70 -139 70q-190 0 -284 -262q-33 -90 -52 -91q-8 0 -8 25z" />
<glyph unicode="&#xa6;" horiz-adv-x="489" d="M184 -33v602h121v-602h-121zM184 803v602h121v-602h-121z" />
<glyph unicode="&#xa7;" horiz-adv-x="829" d="M-53 -23q0 49 33.5 96.5t80.5 47.5q66 0 82 -66q8 -61 17 -125q20 -66 102 -65q88 0 168 70.5t80 156.5q0 74 -88 158q-84 76 -166 153q-88 98 -88 207q0 172 207 351q-39 74 -39 139q0 152 145 268q137 109 293 109q92 0 162 -41q84 -50 84 -136q0 -47 -29 -90 q-33 -49 -78 -49q-63 0 -79 62q-10 55 -21 112q-18 61 -88 62q-84 0 -158 -64q-80 -66 -80 -145q0 -72 88 -158q82 -80 164 -158q86 -102 86 -208q0 -166 -202 -340q43 -68 43 -140q-2 -162 -152 -284q-141 -117 -305 -117q-98 0 -174 47q-88 53 -88 147zM303 705 q0 -76 115 -183q86 -80 172 -157q106 121 106 219q0 76 -110 182l-172 152q-111 -115 -111 -213z" />
<glyph unicode="&#xa8;" horiz-adv-x="952" d="M399 1202q0 41 33 74t74 33q43 0 71.5 -32t28.5 -75t-32.5 -75.5t-75.5 -32.5t-71 31.5t-28 76.5zM815 1202q0 43 33 75t76 32t70.5 -31t27.5 -76q0 -43 -33 -74.5t-74 -31.5q-45 0 -72.5 30.5t-27.5 75.5z" />
<glyph unicode="&#xa9;" horiz-adv-x="1554" d="M84 664q0 287 204 490.5t490 203.5q289 0 492 -202.5t203 -491.5q0 -287 -204 -491t-491 -204t-490.5 204t-203.5 491zM156 666q0 -258 182 -441.5t440 -183.5q256 0 440.5 183.5t184.5 439.5q0 258 -183.5 440t-441.5 182t-440 -181t-182 -439zM393 645q0 186 121 309 t307 123q33 0 96.5 -16.5t94.5 -16.5q41 0 49 31h39l14 -264l-39 -2q-27 94 -94.5 153.5t-161.5 59.5q-133 0 -211 -133q-68 -115 -67 -256q0 -137 63 -225q70 -98 203 -99q166 0 274 123l43 -18q-133 -170 -331 -170q-178 0 -289 111.5t-111 289.5z" />
<glyph unicode="&#xaa;" horiz-adv-x="694" d="M186 948q0 137 127 297q133 168 267 168q55 0 100 -39q33 39 61 39q49 0 50 -22q-20 -59 -27 -70q-131 -383 -131 -442q0 -25 18 -25q41 0 91.5 68.5t56.5 68.5q16 2 16 -16v-10q-16 -63 -79.5 -118.5t-127.5 -55.5q-96 0 -80 116q-94 -117 -200 -116q-66 0 -104 46 t-38 111zM303 930q0 -82 62 -82q84 0 186 190q92 175 92 269q0 59 -63 59q-86 0 -185 -178q-92 -162 -92 -258z" />
<glyph unicode="&#xab;" horiz-adv-x="950" d="M111 449q0 4 28 32q94 68 283 207q51 41 151 119q23 16 37 16q17 0 17 -20q0 -14 -152 -170q-88 -90 -178 -182q23 -41 72 -166q53 -133 57 -164q2 -6 2 -15q0 -27 -31 -26q-23 14 -133 164q-133 178 -141 186q-12 18 -12 19zM465 451q0 12 33 32q457 342 467 342 q16 0 16 -20q0 -16 -150 -172q-117 -121 -178 -178q20 -41 70 -166q53 -133 57 -166q2 -6 2 -14q0 -27 -28 -27q-35 25 -138 164q-125 170 -138 188z" />
<glyph unicode="&#xad;" horiz-adv-x="550" d="M59 401l33 111h463l-31 -111h-465z" />
<glyph unicode="&#xae;" horiz-adv-x="1554" d="M84 659q0 287 202.5 491t489.5 204q289 0 491.5 -204t202.5 -493q0 -287 -203.5 -489.5t-490.5 -202.5q-289 0 -490.5 203t-201.5 491zM156 659q0 -258 181 -441t439 -183t441.5 182t183.5 440q0 260 -182.5 442.5t-442.5 182.5t-440 -181t-180 -442zM414 272v31 q100 0 100 98v543q0 61 -13.5 80.5t-74.5 19.5v35h352q109 0 187 -53q88 -59 88 -164q0 -80 -56.5 -133t-140.5 -65l223 -297q43 -57 97 -60v-35h-187l-276 377h-64v-282q0 -59 105 -60v-35h-340zM647 692q275 27 275 166q0 154 -236 154q-25 0 -37 -2z" />
<glyph unicode="&#xaf;" horiz-adv-x="1024" d="M461 1124l37 129h518l-37 -129h-518z" />
<glyph unicode="&#xb0;" horiz-adv-x="645" d="M86 1190q0 98 70.5 170t169.5 72q96 0 166.5 -72t70.5 -168q0 -98 -68.5 -172t-166.5 -74q-100 0 -171 70.5t-71 173.5zM154 1188q0 -72 51 -124t123 -52t121 53t49 127q0 72 -51.5 123t-122.5 51q-72 0 -121 -52t-49 -126z" />
<glyph unicode="&#xb2;" horiz-adv-x="696" d="M20 676q47 92 240 239q242 186 242 355q0 111 -101 108q-55 0 -102 -39t-55 -88q-6 -35 8 -56t37 -21q27 0 61 28q14 12 27 12q27 0 22 -28q-6 -31 -63 -64q-63 -37 -109 -26q-102 23 -86 125q14 96 98.5 157.5t182.5 61.5q94 -2 154.5 -52.5t60.5 -136.5 q0 -154 -231 -325q-63 -49 -177 -129h353l-72 -113q-39 -59 -59 -59q-25 0 -15 45l4 4q-4 2 -55 2h-365z" />
<glyph unicode="&#xb3;" horiz-adv-x="669" d="M45 813q12 86 88 86q51 0 45 -49q-4 -14 -10 -43q-6 -37 17.5 -58.5t62.5 -21.5q76 0 129 76q51 70 51 147q0 98 -66 99q-25 0 -100 -39q-8 -4 -18 -4q-39 0 -33 36q4 33 82 56q168 51 168 190q0 92 -82 92q-86 -2 -111 -92q-14 -63 13 -65q25 0 47 15t34 17q31 4 31 -16 q0 -6 -6 -14q-16 -29 -68.5 -52.5t-85.5 -17.5q-78 12 -77 86q0 14 4 31q20 76 98 123q72 43 148 43q82 0 135 -43q61 -49 49 -129q-16 -109 -139 -170q117 -45 116 -156q0 -121 -110 -201q-101 -73 -226 -73q-78 0 -131 30q-70 39 -55 117z" />
<glyph unicode="&#xb4;" horiz-adv-x="815" d="M418 1022l315 330q68 70 123 69q64 0 64 -59t-84 -113l-375 -239z" />
<glyph unicode="&#xb6;" horiz-adv-x="980" d="M53 1038q0 338 375 338q41 0 121 -4t119 -4q37 0 108.5 4t106.5 4v-16q-43 -25 -43 -123v-1262q0 -100 43 -120v-21l-138 6l-2 1448h-75v-1448q-74 0 -148 -6v19q43 20 43 122l-2 1313q-39 8 -88 8q-221 0 -221 -270q0 -137 63 -217q37 -43 121 -90q63 -35 64 -66 q0 -8 -15.5 -16t-25.5 -8q-23 0 -105 28q-301 104 -301 381z" />
<glyph unicode="&#xb7;" horiz-adv-x="452" d="M219 641q0 45 33 78t80 33t80.5 -33t33.5 -78q0 -47 -33.5 -80t-80.5 -33q-45 0 -79 34t-34 79z" />
<glyph unicode="&#xb8;" horiz-adv-x="759" d="M92 -330l60 64q70 -33 127 -33q43 0 72.5 25.5t29.5 68.5q0 41 -57 41q-27 0 -56 -6l76 152h53l-37 -82q140 -10 140 -88q0 -23 -11 -45q-66 -147 -213 -148q-82 0 -184 51z" />
<glyph unicode="&#xb9;" horiz-adv-x="595" d="M72 705q2 25 67 40q41 10 54 43q6 18 14 66l67 428q2 20 -4 25.5t-37 5.5q-74 0 -73 37q0 25 30 32q45 6 140 29q14 4 51 16q14 4 22 5q20 0 21 -33q0 -18 -4 -49l-80 -496q-14 -90 11.5 -100.5t49.5 -16.5q31 -12 27 -32q-6 -27 -39 -27h-289q-31 0 -28 27z" />
<glyph unicode="&#xba;" horiz-adv-x="620" d="M211 1010q0 141 94 266q100 137 238 137q88 0 137 -63.5t49 -155.5q0 -141 -92 -266q-98 -137 -236 -137q-90 0 -141 67q-49 59 -49 152zM319 940q0 -111 82 -111q88 0 160 179q62 150 62 256q0 104 -78 104q-86 0 -162 -174q-63 -152 -64 -254z" />
<glyph unicode="&#xbb;" horiz-adv-x="950" d="M25 90q0 31 145 184q104 109 182 181q-106 225 -133 327v9q0 35 29 34q4 0 20 -16q63 -76 256 -326q15 -14 15 -24t-23 -27l-287 -213q-51 -45 -159 -121l-29 -16q-14 0 -16 8zM379 92q0 14 12 35q35 57 318 328q-18 39 -74 172q-59 147 -60 164q2 35 31 34q8 0 21 -16 q84 -113 254 -328q14 -14 14 -24q0 -8 -25 -25q-4 -4 -315 -239q-55 -45 -158 -111q-16 0 -18 10z" />
<glyph unicode="&#xbc;" horiz-adv-x="1486" d="M41 -135q0 4 4 8q377 465 1239 1618q18 16 57 16q23 0 23 -8l-4 -8q-471 -623 -1223 -1618q-16 -23 -61 -23q-35 0 -35 15zM190 705q2 25 68 40q41 10 53 43q6 18 15 66l67 428q2 20 -4 25.5t-37 5.5q-76 0 -76 37q0 25 33 32q45 6 140 29q14 4 51 16q14 4 22 5 q20 0 21 -33q0 -18 -6 -49l-78 -496q-14 -90 11.5 -100.5t49.5 -16.5q31 -12 27 -32q-6 -27 -39 -27h-289q-33 0 -29 27zM682 236q0 16 20 38l400 455q39 43 55 43q8 0 12.5 -33.5t1.5 -46.5l-65 -405h12q14 0 45 24.5t58 16.5q33 -8 32 -37q0 -27 -24 -53.5t-49 -26.5h-86 q-2 -23 -9 -68q-6 -59 17.5 -68t48.5 -16q31 -12 27 -32q-6 -27 -39 -27h-289q-33 0 -29 27q2 25 68 41q41 10 53 43q6 18 14 65l5 35h-242q-37 0 -37 25zM799 287h174l39 245l-6 -8z" />
<glyph unicode="&#xbd;" horiz-adv-x="1486" d="M6 -135q0 4 4 8q375 465 1239 1618q18 16 56 16q23 0 22 -8q0 -4 -2 -8q-471 -623 -1223 -1618q-18 -23 -63 -23q-33 0 -33 15zM154 705q2 25 69 40q39 10 51 43q8 18 15 66l67 428q4 20 -2 25.5t-39 5.5q-74 0 -73 37q0 25 32 32q45 6 140 29q14 4 51 16q12 4 20 5 q20 0 21 -33q0 -18 -4 -49l-78 -496q-14 -90 10.5 -100.5t48.5 -16.5q33 -12 29 -32q-8 -27 -39 -27h-289q-33 0 -30 27zM702 0q47 92 240 240q240 186 240 354q0 111 -101 108q-53 0 -100 -38.5t-55 -88.5q-6 -35 7 -56t38 -21q27 0 59 28q16 12 29 13q27 0 20 -29 q-4 -31 -64.5 -65.5t-105.5 -24.5q-104 23 -88 125q16 96 100.5 157.5t180.5 61.5q94 -2 155.5 -52t61.5 -137q0 -154 -232 -325q-63 -49 -176 -129h353l-74 -113q-37 -59 -57 -59q-27 0 -15 45q2 2 2 4q-2 2 -53 2h-365z" />
<glyph unicode="&#xbe;" horiz-adv-x="1486" d="M74 -135l4 8q377 465 1239 1618q18 16 57 16q23 0 23 -8q0 -4 -4 -8q-469 -623 -1223 -1618q-16 -23 -61 -23q-35 0 -35 15zM158 813q14 86 90 86q49 0 43 -49q-4 -14 -10 -43q-4 -37 18.5 -58.5t62.5 -21.5q76 0 130 76q49 70 49 147q0 98 -64 99q-25 0 -100 -39 q-8 -4 -19 -4q-41 0 -34 36q6 33 82 56q170 51 169 190q0 92 -81 92q-86 -2 -111 -92q-16 -63 12 -65q25 0 47.5 15t34.5 17q31 4 31 -16q0 -6 -6 -14q-18 -29 -69.5 -52.5t-84.5 -17.5q-78 12 -78 86q0 14 4 31q18 76 99 123q70 43 147 43q82 0 135 -43q61 -49 50 -129 q-16 -109 -142 -170q119 -45 119 -156q0 -121 -111 -201q-100 -73 -225 -73q-78 0 -131 30q-70 39 -57 117zM715 236q0 16 20 38l400 455q39 43 55 43q8 0 12 -33.5t2 -46.5l-65 -405h12q14 0 45 24.5t57 16.5q35 -8 35 -37q0 -27 -25.5 -53.5t-50.5 -26.5h-84 q-4 -23 -10 -68q-6 -59 17.5 -68t48.5 -16q31 -12 26 -32q-6 -27 -39 -27h-288q-31 0 -29 27q2 25 68 41q41 10 53 43q6 18 14 65l4 35h-241q-37 0 -37 25zM831 287h175l38 245l-6 -8z" />
<glyph unicode="&#xbf;" horiz-adv-x="788" d="M63 -195q0 160 148 275q137 84 276 166q147 90 148 184q0 43 -37 68.5t-82 25.5q-53 0 -110.5 -36.5t-55.5 -36.5q-12 0 -12 16q0 39 86 80q78 39 127 39q76 0 123 -48t47 -126q0 -96 -129 -224q-92 -90 -215 -168q-219 -139 -219 -270q0 -96 73 -153q66 -55 164 -56 q94 0 161 52.5t67 142.5q0 55 -33 91t-88 36t-56 -29q0 -14 34 -31.5t34 -54.5q0 -33 -21.5 -57.5t-54.5 -24.5q-47 0 -75.5 32t-28.5 79q0 61 49 98t115 37q74 0 123 -48t49 -122q0 -109 -83 -172.5t-194 -63.5q-137 0 -233.5 82t-96.5 217zM522 815q0 45 36 80t81 35 q47 0 76.5 -34t29.5 -81q0 -45 -34.5 -80t-79.5 -35q-47 0 -78 34t-31 81z" />
<glyph unicode="&#xc0;" horiz-adv-x="1419" d="M-154 14q0 23 66 41q90 27 92 29q86 47 168 154l924 1189q70 88 92 89q25 0 24 -103v-1175q0 -102 56 -154q10 -10 59 -26.5t47 -22.5q0 -35 -39 -35h-540q-25 0 -23 16q0 25 91 50.5t106 68.5q20 61 20 393q-498 0 -497 0q-76 -100 -154 -200q-121 -164 -121 -193 q0 -41 57.5 -64.5t57.5 -35.5q0 -35 -43 -35h-418q-25 0 -25 14zM547 604q113 -10 201 -10q137 0 245 8l2 600q-201 -272 -448 -598zM942 1855q0 39 35 69t74 30q57 0 84 -70l127 -330l-52 -12l-237 240q-31 31 -31 73z" />
<glyph unicode="&#xc1;" horiz-adv-x="1419" d="M-154 14q0 23 66 41q90 27 92 29q86 47 168 154l924 1189q70 88 92 89q25 0 24 -103v-1175q0 -102 56 -154q10 -10 59 -26.5t47 -22.5q0 -35 -39 -35h-540q-25 0 -23 16q0 25 91 50.5t106 68.5q20 61 20 393q-498 0 -497 0q-76 -100 -154 -200q-121 -164 -121 -193 q0 -41 57.5 -64.5t57.5 -35.5q0 -35 -43 -35h-418q-25 0 -25 14zM547 604q113 -10 201 -10q137 0 245 8l2 600q-201 -272 -448 -598zM1073 1554l316 330q68 70 122 70q64 -1 64 -60t-84 -112l-375 -240z" />
<glyph unicode="&#xc2;" horiz-adv-x="1419" d="M-154 14q0 23 66 41q90 27 92 29q86 47 168 154l924 1189q70 88 92 89q25 0 24 -103v-1175q0 -102 56 -154q10 -10 59 -26.5t47 -22.5q0 -35 -39 -35h-540q-25 0 -23 16q0 25 91 50.5t106 68.5q20 61 20 393q-498 0 -497 0q-76 -100 -154 -200q-121 -164 -121 -193 q0 -41 57.5 -64.5t57.5 -35.5q0 -35 -43 -35h-418q-25 0 -25 14zM547 604q113 -10 201 -10q137 0 245 8l2 600q-201 -272 -448 -598zM868 1571q37 37 93 92q82 84 243 254l107 -2q49 -172 110 -295l21 -41q6 -18 6 -14q0 -27 -29 -27q-27 0 -113.5 110.5t-91.5 110.5 l-144 -107q-144 -108 -175 -108q-27 0 -27 27z" />
<glyph unicode="&#xc3;" horiz-adv-x="1419" d="M-156 14q0 23 66 41q90 27 92 29q86 47 168 154l924 1189q70 88 92 89q25 0 24 -103v-1175q0 -102 56 -154q10 -10 59 -26.5t47 -22.5q0 -35 -39 -35h-540q-25 0 -23 16q0 25 91 50.5t106 68.5q20 61 20 393h-498q-76 -100 -153 -200q-121 -164 -121 -193 q0 -41 57.5 -64.5t57.5 -35.5q0 -35 -43 -35h-418q-25 0 -25 14zM545 604q113 -10 200 -10q137 0 246 8l2 600q-201 -272 -448 -598zM934 1632q0 12 41 72q102 150 235 149q51 0 135.5 -42t100.5 -42q35 0 84 49.5t65 49.5q13 -1 29 -17q-29 -78 -113 -143q-86 -72 -163 -72 q-45 0 -120 40t-120 40q-49 0 -89 -49t-63 -49t-22 14z" />
<glyph unicode="&#xc4;" horiz-adv-x="1419" d="M-154 14q0 23 66 41q90 27 92 29q86 47 168 154l924 1189q70 88 92 89q25 0 24 -103v-1175q0 -102 56 -154q10 -10 59 -26.5t47 -22.5q0 -35 -39 -35h-540q-25 0 -23 16q0 25 91 50.5t106 68.5q20 61 20 393q-498 0 -497 0q-76 -100 -154 -200q-121 -164 -121 -193 q0 -41 57.5 -64.5t57.5 -35.5q0 -35 -43 -35h-418q-25 0 -25 14zM547 604q113 -10 201 -10q137 0 245 8l2 600q-201 -272 -448 -598zM891 1735q0 41 32.5 73.5t73.5 32.5q43 0 72 -31.5t29 -74.5t-33 -76t-76 -33t-70.5 32t-27.5 77zM1307 1735q0 43 32.5 74.5t75.5 31.5 t70.5 -30.5t27.5 -75.5q0 -43 -32.5 -75t-73.5 -32q-45 0 -72.5 31t-27.5 76z" />
<glyph unicode="&#xc5;" horiz-adv-x="1419" d="M-154 14q0 23 66 41q90 27 92 29q86 47 168 154l924 1189q70 88 92 89q25 0 24 -103v-1175q0 -102 56 -154q10 -10 59 -26.5t47 -22.5q0 -35 -39 -35h-540q-25 0 -23 16q0 25 91 50.5t106 68.5q20 61 20 393q-498 0 -497 0q-76 -100 -154 -200q-121 -164 -121 -193 q0 -41 57.5 -64.5t57.5 -35.5q0 -35 -43 -35h-418q-25 0 -25 14zM547 604q113 -10 201 -10q137 0 245 8l2 600q-201 -272 -448 -598zM977 1788q0 80 63.5 142.5t143.5 62.5q84 0 139 -60.5t55 -144.5q0 -82 -63.5 -144.5t-147.5 -62.5t-137 61.5t-53 145.5zM1038 1788 q0 -59 36 -102.5t95 -43.5q57 0 101.5 45.5t44.5 100.5q0 59 -36 102t-95 43q-57 0 -101.5 -45t-44.5 -100z" />
<glyph unicode="&#xc6;" horiz-adv-x="1906" d="M-154 14q0 23 66 41q88 27 90 29q92 53 170 154l887 1140q-80 23 -80 39q0 33 41 33h922q61 0 61 -27q0 -96 -53 -284q-6 -33 -21 -33q-18 0 -20 53q-8 147 -131 195q-70 25 -252 26q-150 2 -162 -43l-172 -620h117q193 0 264 133q14 35 47 100q8 12 18 13q14 0 15 -17 q-129 -485 -141.5 -515t-30.5 -30q-14 0 -15 15q0 18 4.5 55t4.5 53q0 125 -199 125h-55q-37 -2 -50 -2l-96 -338q-20 -72 -20 -121q0 -84 78 -110q43 -14 151 -15q145 0 215 23q90 29 178 121q47 49 103 133q49 76 53 76l10 2q14 0 19 -21q0 -35 -142 -397l-354 -2h-184 q-131 2 -185 2h-385q-27 0 -26 23q0 18 65 36q43 12 86 25q76 31 127 221l92 338q-375 0 -374 0q-102 -131 -205 -264q-160 -213 -160 -260q0 -27 57.5 -49.5t57.5 -36.5q0 -33 -43 -33h-418q-25 0 -25 14zM635 719q84 -8 188 -8q51 0 154 4l123 430q28 98 26 145 q-2 35 -10 53q-82 -102 -481 -624z" />
<glyph unicode="&#xc7;" horiz-adv-x="1460" d="M160 473q0 385 295 697.5t678 312.5q174 0 389 -129l4 -4q18 0 49 54t57 54q15 0 13 -16q0 -10 -51.5 -231.5t-53.5 -229.5q-10 -29 -41 -29q-16 0 -10 41q0 188 -88 299q-98 123 -283 123q-299 0 -514 -332q-195 -297 -194 -616q0 -186 86 -291q92 -117 274 -117 q176 0 317 107q90 68 185 199q76 106 90 106q20 0 20 -20q0 -14 -57 -185q-53 -160 -70 -200q-20 -53 -43 -54q-20 0 -27 45t-24 45q-8 0 -188 -68.5t-295 -68.5l-31 -65q139 -10 139 -88q0 -23 -10 -45q-66 -147 -213 -146q-88 2 -184 49l59 64q72 -33 127 -35 q43 0 73 26.5t30 69.5q0 41 -58 41q-27 0 -55 -6l68 137q-215 20 -339 154.5t-124 351.5z" />
<glyph unicode="&#xc8;" horiz-adv-x="1306" d="M-16 23q0 16 67 38q41 12 84 25q74 29 127 219l236 840q29 104 28 147q0 51 -39 74q-16 10 -71 25q-39 8 -39 26q0 33 41 33h921q62 0 62 -27q0 -90 -53 -284q-6 -33 -21 -33q-18 0 -20 53q-8 147 -131 195q-70 25 -252 26q-150 2 -162 -43l-150 -538h117q193 0 264 133 q14 35 47 100q8 12 19 12q14 0 14 -18q0 -4 -67.5 -250t-75.5 -262q-8 -31 -29 -31q-14 0 -14 15q0 18 4 55t4 53q0 125 -199 125h-55q-37 -2 -49 -2l-119 -420q-20 -72 -20 -121q0 -84 77 -110q43 -14 152 -15q145 0 215 23q88 29 178 123q49 51 103 129l53 78l10 2 q14 0 19 -21q0 -35 -142 -397h-1108q-27 0 -26 23zM676 1855q0 39 34.5 69t73.5 30q57 0 84 -70l127 -330l-51 -12l-237 240q-31 31 -31 73z" />
<glyph unicode="&#xc9;" horiz-adv-x="1306" d="M-16 23q0 16 67 38q41 12 84 25q74 29 127 219l236 840q29 104 28 147q0 51 -39 74q-16 10 -71 25q-39 8 -39 26q0 33 41 33h921q62 0 62 -27q0 -90 -53 -284q-6 -33 -21 -33q-18 0 -20 53q-8 147 -131 195q-70 25 -252 26q-150 2 -162 -43l-150 -538h117q193 0 264 133 q14 35 47 100q8 12 19 12q14 0 14 -18q0 -4 -67.5 -250t-75.5 -262q-8 -31 -29 -31q-14 0 -14 15q0 18 4 55t4 53q0 125 -199 125h-55q-37 -2 -49 -2l-119 -420q-20 -72 -20 -121q0 -84 77 -110q43 -14 152 -15q145 0 215 23q88 29 178 123q49 51 103 129l53 78l10 2 q14 0 19 -21q0 -35 -142 -397h-1108q-27 0 -26 23zM807 1554l315 330q68 70 123 70q64 -1 64 -60t-84 -112l-375 -240z" />
<glyph unicode="&#xca;" horiz-adv-x="1306" d="M-16 23q0 16 67 38q41 12 84 25q74 29 127 219l236 840q29 104 28 147q0 51 -39 74q-16 10 -71 25q-39 8 -39 26q0 33 41 33h921q62 0 62 -27q0 -90 -53 -284q-6 -33 -21 -33q-18 0 -20 53q-8 147 -131 195q-70 25 -252 26q-150 2 -162 -43l-150 -538h117q193 0 264 133 q14 35 47 100q8 12 19 12q14 0 14 -18q0 -4 -67.5 -250t-75.5 -262q-8 -31 -29 -31q-14 0 -14 15q0 18 4 55t4 53q0 125 -199 125h-55q-37 -2 -49 -2l-119 -420q-20 -72 -20 -121q0 -84 77 -110q43 -14 152 -15q145 0 215 23q88 29 178 123q49 51 103 129l53 78l10 2 q14 0 19 -21q0 -35 -142 -397h-1108q-27 0 -26 23zM643 1571l92 92q82 84 244 254l106 -2q49 -172 111 -295l21 -41q6 -18 6 -14q0 -27 -29 -27q-27 0 -114 110.5t-91 110.5l-145 -107q-144 -108 -174 -108q-27 0 -27 27z" />
<glyph unicode="&#xcb;" horiz-adv-x="1306" d="M-16 23q0 16 67 38q41 12 84 25q74 29 127 219l236 840q29 104 28 147q0 51 -39 74q-16 10 -71 25q-39 8 -39 26q0 33 41 33h921q62 0 62 -27q0 -90 -53 -284q-6 -33 -21 -33q-18 0 -20 53q-8 147 -131 195q-70 25 -252 26q-150 2 -162 -43l-150 -538h117q193 0 264 133 q14 35 47 100q8 12 19 12q14 0 14 -18q0 -4 -67.5 -250t-75.5 -262q-8 -31 -29 -31q-14 0 -14 15q0 18 4 55t4 53q0 125 -199 125h-55q-37 -2 -49 -2l-119 -420q-20 -72 -20 -121q0 -84 77 -110q43 -14 152 -15q145 0 215 23q88 29 178 123q49 51 103 129l53 78l10 2 q14 0 19 -21q0 -35 -142 -397h-1108q-27 0 -26 23zM645 1735q0 41 33 73.5t74 32.5q43 0 71.5 -31.5t28.5 -74.5t-33 -76t-76 -33t-70.5 32t-27.5 77zM1061 1735q0 43 32.5 74.5t75.5 31.5t71 -30.5t28 -75.5q0 -43 -33 -75t-74 -32q-45 0 -72.5 31t-27.5 76z" />
<glyph unicode="&#xcc;" horiz-adv-x="784" d="M-4 23q0 16 67 38q41 12 84 25q74 29 127 219l236 842q29 104 29 147q0 51 -39 74q-16 10 -72 23q-37 10 -37 28q0 31 39 31h545q26 0 26 -25q0 -16 -65 -34q-43 -12 -86 -25q-51 -20 -86 -94q-14 -33 -41 -127l-236 -842q-29 -104 -28 -147q0 -51 39 -74q16 -10 71 -23 q37 -10 37 -28q0 -31 -39 -31h-544q-27 0 -27 23zM451 1855q0 39 34.5 69t73.5 30q57 0 84 -70l127 -330l-51 -12l-238 240q-31 31 -30 73z" />
<glyph unicode="&#xcd;" horiz-adv-x="784" d="M-4 23q0 16 67 38q41 12 84 25q74 29 127 219l236 842q29 104 29 147q0 51 -39 74q-16 10 -72 23q-37 10 -37 28q0 31 39 31h545q26 0 26 -25q0 -16 -65 -34q-43 -12 -86 -25q-51 -20 -86 -94q-14 -33 -41 -127l-236 -842q-29 -104 -28 -147q0 -51 39 -74q16 -10 71 -23 q37 -10 37 -28q0 -31 -39 -31h-544q-27 0 -27 23zM623 1554l315 330q68 70 123 70q63 -1 63 -60t-84 -112l-374 -240z" />
<glyph unicode="&#xce;" horiz-adv-x="784" d="M-4 23q0 16 67 38q41 12 84 25q74 29 127 219l236 842q29 104 29 147q0 51 -39 74q-16 10 -72 23q-37 10 -37 28q0 31 39 31h545q26 0 26 -25q0 -16 -65 -34q-43 -12 -86 -25q-51 -20 -86 -94q-14 -33 -41 -127l-236 -842q-29 -104 -28 -147q0 -51 39 -74q16 -10 71 -23 q37 -10 37 -28q0 -31 -39 -31h-544q-27 0 -27 23zM418 1571l92 92q82 84 244 254l106 -2q49 -172 111 -295l20 -41q6 -18 6 -14q0 -27 -28 -27q-27 0 -114 110.5t-91 110.5l-144 -107q-145 -108 -176 -108q-27 0 -26 27z" />
<glyph unicode="&#xcf;" horiz-adv-x="784" d="M-4 23q0 16 67 38q41 12 84 25q74 29 127 219l236 842q29 104 29 147q0 51 -39 74q-16 10 -72 23q-37 10 -37 28q0 31 39 31h545q26 0 26 -25q0 -16 -65 -34q-43 -12 -86 -25q-51 -20 -86 -94q-14 -33 -41 -127l-236 -842q-29 -104 -28 -147q0 -51 39 -74q16 -10 71 -23 q37 -10 37 -28q0 -31 -39 -31h-544q-27 0 -27 23zM440 1735q0 41 33 73.5t74 32.5q43 0 71.5 -31.5t28.5 -74.5t-32.5 -76t-75.5 -33t-71 32t-28 77zM856 1735q0 43 33 74.5t76 31.5t70.5 -30.5t27.5 -75.5q0 -43 -33 -75t-74 -32q-45 0 -72.5 31t-27.5 76z" />
<glyph unicode="&#xd0;" horiz-adv-x="1574" d="M-23 23q0 18 66 36q43 12 86 25q74 31 127 221l96 342h-170l33 111h168l111 387q29 100 28 149q0 49 -39 74q-18 12 -71 25q-39 8 -39 22q0 35 39 35h553q649 0 649 -496q0 -207 -100.5 -415.5t-262.5 -335.5q-154 -123 -336 -168q-143 -35 -376 -35h-502q-41 0 -39 0 q-20 2 -21 23zM449 176q0 -74 65 -98q39 -14 129 -15q506 0 686 650q43 154 43 274q0 399 -426 399q-170 0 -186 -55l-162 -573h244l-31 -111h-244l-92 -328q-27 -94 -26 -143z" />
<glyph unicode="&#xd1;" horiz-adv-x="1589" d="M-109 74q0 104 91 104q33 0 63.5 -32.5t46.5 -32.5q84 0 148 237q31 119 268 963q-27 33 -70 53q-33 10 -63 20q-51 18 -51 29q0 35 38 35h242q106 0 117 -20l500 -1082q61 221 186 666q57 193 92 268q72 147 184 201q39 18 76 18q53 0 92 -30.5t39 -81.5 q0 -39 -23.5 -71t-62.5 -32q-31 0 -67.5 37t-59.5 37q-92 2 -161 -246l-312 -1100q-16 -61 -41 -61q-16 0 -30 27q-2 2 -64 137l-506 1097l-227 -868q-98 -379 -318 -379q-127 0 -127 107zM852 1632q0 12 41 72q102 150 235 149q51 0 135.5 -42t100.5 -42q35 0 84 49.5 t65 49.5q13 -1 29 -17q-29 -78 -112 -143q-86 -72 -164 -72q-45 0 -120 40t-120 40q-49 0 -89 -49t-63 -49t-22 14z" />
<glyph unicode="&#xd2;" horiz-adv-x="1503" d="M217 514q0 348 248 651q262 319 602 320q231 0 369 -168q129 -155 129 -391q0 -346 -250 -645q-260 -313 -600 -314q-229 0 -367 162q-131 152 -131 385zM446 430q0 -160 60 -264q74 -131 221 -131q295 0 469 366q139 293 139 629q0 158 -59 260q-72 123 -219 123 q-272 0 -457 -369q-154 -309 -154 -614zM840 1855q0 39 34.5 69t73.5 30q57 0 84 -70l127 -330l-51 -12l-238 240q-31 31 -30 73z" />
<glyph unicode="&#xd3;" horiz-adv-x="1503" d="M217 514q0 348 248 651q262 319 602 320q231 0 369 -168q129 -155 129 -391q0 -346 -250 -645q-260 -313 -600 -314q-229 0 -367 162q-131 152 -131 385zM446 430q0 -160 60 -264q74 -131 221 -131q295 0 469 366q139 293 139 629q0 158 -59 260q-72 123 -219 123 q-272 0 -457 -369q-154 -309 -154 -614zM991 1554l316 330q68 70 123 70q63 -1 63 -60t-84 -112l-375 -240z" />
<glyph unicode="&#xd4;" horiz-adv-x="1503" d="M217 514q0 348 248 651q262 319 602 320q231 0 369 -168q129 -155 129 -391q0 -346 -250 -645q-260 -313 -600 -314q-229 0 -367 162q-131 152 -131 385zM446 430q0 -160 60 -264q74 -131 221 -131q295 0 469 366q139 293 139 629q0 158 -59 260q-72 123 -219 123 q-272 0 -457 -369q-154 -309 -154 -614zM807 1571l92 92q82 84 244 254l106 -2q49 -172 111 -295l20 -41q6 -18 6 -14q0 -27 -28 -27q-27 0 -114 110.5t-91 110.5l-145 -107q-144 -108 -174 -108q-27 0 -27 27z" />
<glyph unicode="&#xd5;" horiz-adv-x="1503" d="M215 514q0 348 248 651q262 319 602 320q231 0 369 -168q129 -155 129 -391q0 -346 -250 -645q-260 -313 -600 -314q-229 0 -367 162q-131 152 -131 385zM444 430q0 -160 60 -264q74 -131 221 -131q295 0 469 366q139 293 139 629q0 158 -59 260q-72 123 -219 123 q-272 0 -457 -369q-154 -309 -154 -614zM852 1632q0 12 41 72q102 150 235 149q51 0 135.5 -42t100.5 -42q35 0 84 49.5t65 49.5q13 -1 29 -17q-29 -78 -112 -143q-86 -72 -164 -72q-45 0 -120 40t-120 40q-49 0 -89 -49t-63 -49t-22 14z" />
<glyph unicode="&#xd6;" horiz-adv-x="1503" d="M217 514q0 348 248 651q262 319 602 320q231 0 369 -168q129 -155 129 -391q0 -346 -250 -645q-260 -313 -600 -314q-229 0 -367 162q-131 152 -131 385zM446 430q0 -160 60 -264q74 -131 221 -131q295 0 469 366q139 293 139 629q0 158 -59 260q-72 123 -219 123 q-272 0 -457 -369q-154 -309 -154 -614zM870 1735q0 41 33 73.5t74 32.5q43 0 71.5 -31.5t28.5 -74.5t-32.5 -76t-75.5 -33t-71 32t-28 77zM1286 1735q0 43 33 74.5t76 31.5t70.5 -30.5t27.5 -75.5q0 -43 -33 -75t-74 -32q-45 0 -72.5 31t-27.5 76z" />
<glyph unicode="&#xd7;" horiz-adv-x="1024" d="M133 102l301 306l-301 301l76 79l303 -303l305 308l76 -78l-303 -307l303 -306l-76 -79l-305 307l-303 -307z" />
<glyph unicode="&#xd8;" horiz-adv-x="1671" d="M135 -18l182 182q-100 143 -100 350q0 348 248 651q262 319 602 320q240 0 377 -178l203 204l73 -22l-237 -240q82 -137 82 -323q0 -346 -250 -645q-260 -313 -600 -314q-215 0 -353 144l-149 -152zM446 430q0 -55 11 -123l862 873q-49 233 -262 233q-272 0 -457 -369 q-154 -309 -154 -614zM479 227q70 -193 250 -192q295 0 469 366q139 293 139 629q0 43 -2 66z" />
<glyph unicode="&#xd9;" horiz-adv-x="1595" d="M260 301q0 84 31 195l182 651q31 111 31 147q0 51 -39 74q-10 6 -72 23q-39 10 -39 34q0 25 39 25h543q25 0 25 -25q0 -18 -66 -36q-41 -10 -84 -23q-76 -31 -129 -221l-174 -623q-31 -111 -31 -196q0 -272 279 -273q434 0 596 576l145 518q29 102 29 147q0 49 -39 74 q-18 12 -72 25q-39 8 -39 22q0 35 39 35h418q25 0 25 -25q0 -18 -66 -36q-41 -10 -82 -23q-76 -33 -131 -221l-113 -385q-113 -387 -249 -557q-193 -240 -537 -240q-420 0 -420 338zM922 1855q0 39 34.5 69t73.5 30q57 0 84 -70l127 -330l-51 -12l-238 240q-31 31 -30 73z " />
<glyph unicode="&#xda;" horiz-adv-x="1595" d="M260 301q0 84 31 195l182 651q31 111 31 147q0 51 -39 74q-10 6 -72 23q-39 10 -39 34q0 25 39 25h543q25 0 25 -25q0 -18 -66 -36q-41 -10 -84 -23q-76 -31 -129 -221l-174 -623q-31 -111 -31 -196q0 -272 279 -273q434 0 596 576l145 518q29 102 29 147q0 49 -39 74 q-18 12 -72 25q-39 8 -39 22q0 35 39 35h418q25 0 25 -25q0 -18 -66 -36q-41 -10 -82 -23q-76 -33 -131 -221l-113 -385q-113 -387 -249 -557q-193 -240 -537 -240q-420 0 -420 338zM1114 1554l316 330q68 70 122 70q64 -1 64 -60t-84 -112l-375 -240z" />
<glyph unicode="&#xdb;" horiz-adv-x="1595" d="M260 301q0 84 31 195l182 651q31 111 31 147q0 51 -39 74q-10 6 -72 23q-39 10 -39 34q0 25 39 25h543q25 0 25 -25q0 -18 -66 -36q-41 -10 -84 -23q-76 -31 -129 -221l-174 -623q-31 -111 -31 -196q0 -272 279 -273q434 0 596 576l145 518q29 102 29 147q0 49 -39 74 q-18 12 -72 25q-39 8 -39 22q0 35 39 35h418q25 0 25 -25q0 -18 -66 -36q-41 -10 -82 -23q-76 -33 -131 -221l-113 -385q-113 -387 -249 -557q-193 -240 -537 -240q-420 0 -420 338zM889 1571l92 92q82 84 244 254l106 -2q49 -172 111 -295l20 -41q6 -18 6 -14 q0 -27 -28 -27q-27 0 -114 110.5t-91 110.5l-145 -107q-144 -108 -175 -108q-27 0 -26 27z" />
<glyph unicode="&#xdc;" horiz-adv-x="1595" d="M260 301q0 84 31 195l182 651q31 111 31 147q0 51 -39 74q-10 6 -72 23q-39 10 -39 34q0 25 39 25h543q25 0 25 -25q0 -18 -66 -36q-41 -10 -84 -23q-76 -31 -129 -221l-174 -623q-31 -111 -31 -196q0 -272 279 -273q434 0 596 576l145 518q29 102 29 147q0 49 -39 74 q-18 12 -72 25q-39 8 -39 22q0 35 39 35h418q25 0 25 -25q0 -18 -66 -36q-41 -10 -82 -23q-76 -33 -131 -221l-113 -385q-113 -387 -249 -557q-193 -240 -537 -240q-420 0 -420 338zM870 1735q0 41 33 73.5t74 32.5q43 0 71.5 -31.5t28.5 -74.5t-32.5 -76t-75.5 -33t-71 32 t-28 77zM1286 1735q0 43 33 74.5t76 31.5t70.5 -30.5t27.5 -75.5q0 -43 -33 -75t-74 -32q-45 0 -72.5 31t-27.5 76z" />
<glyph unicode="&#xdd;" horiz-adv-x="1415" d="M219 1024q0 23 35 109q133 332 381 331q143 0 211 -133q51 -102 51 -260q0 -70 -8 -209q39 80 121 228q225 383 520 383q66 0 114 -44t48 -110q0 -41 -28 -71.5t-69 -30.5q-57 0 -99 86t-103 86q-72 0 -185 -127q-76 -86 -139 -189q-106 -172 -178 -373 q-39 -109 -119 -395q-29 -102 -29 -149q0 -49 39 -74q18 -12 72 -25q39 -8 39 -22q0 -35 -39 -35h-545q-27 0 -26 23q0 18 65 38q43 10 84 23q78 31 129 221q98 354 111 412q70 276 69 409q0 96 -41 156q-47 70 -139 70q-188 0 -282 -262q-33 -90 -52 -91q-8 0 -8 25z M1032 1554l316 330q68 70 122 70q64 -1 64 -60t-84 -112l-375 -240z" />
<glyph unicode="&#xde;" horiz-adv-x="1196" d="M-23 23q0 16 68 38q41 12 84 25q74 29 127 219l236 842q29 104 28 147q0 51 -39 74q-16 10 -71 23q-37 10 -37 28q0 31 39 31h544q27 0 27 -25q0 -16 -65 -34q-43 -12 -87 -25q-76 -31 -126 -221v-2h208q152 0 263 -80q123 -88 122 -229q0 -33 -8 -70q-90 -410 -657 -410 q-82 0 -148 8l-16 -59q-29 -106 -29 -147q0 -51 39 -74q16 -10 72 -23q37 -10 37 -28q0 -31 -39 -31h-545q-27 0 -27 23zM506 442q70 -12 106 -12q348 0 443 334q20 72 20 131q0 188 -260 188q-127 0 -143 -57z" />
<glyph unicode="&#xdf;" horiz-adv-x="1011" d="M-377 -436q0 92 86 92q78 0 78 -121q0 -55 45 -55q74 0 139 166q20 53 70 233l301 1106q53 195 156 315q127 147 305 148q109 0 184 -64q80 -70 80 -176q0 -98 -92 -186q-29 -27 -172 -129q-92 -66 -92 -109q0 -45 71 -131q125 -150 133 -161q72 -102 72 -187 q0 -139 -115 -235q-106 -90 -249 -90q-92 0 -164 47q-80 55 -80 143q0 45 23.5 77t66.5 32q49 0 55 -39q0 2 0 -78q0 -121 127 -121q82 0 139.5 52t57.5 132q0 96 -131 242.5t-131 226.5q0 76 88 158q80 76 162 152q88 100 88 217q0 66 -38 113.5t-102 47.5 q-117 0 -188 -129q-33 -63 -80 -233l-256 -936q-82 -299 -141 -418q-127 -252 -316 -252q-70 0 -125 41t-55 109z" />
<glyph unicode="&#xe0;" d="M86 215q0 205 178 453q190 262 387 262q84 0 142 -74q16 61 65 62q94 0 94 -33q0 -6 -47 -148q-182 -547 -182 -628q0 -39 29 -39q57 0 131.5 104.5t77.5 104.5q28 0 28 -27v-4q-2 -4 -2 -6q-43 -104 -113 -179q-88 -90 -184 -90q-111 0 -110 133q0 35 6 68 q-137 -201 -299 -201q-96 0 -152 76q-49 66 -49 166zM248 195q0 -133 90 -134q127 0 254 258q86 176 135 373q14 58 14 76q0 41 -27.5 70.5t-68.5 29.5q-129 0 -268 -276q-129 -250 -129 -397zM410 1323q0 39 34.5 68.5t73.5 29.5q57 0 84 -69l127 -330l-51 -12l-238 239 q-31 31 -30 74z" />
<glyph unicode="&#xe1;" d="M86 215q0 205 178 453q190 262 387 262q84 0 142 -74q16 61 65 62q94 0 94 -33q0 -6 -47 -148q-182 -547 -182 -628q0 -39 29 -39q57 0 131.5 104.5t77.5 104.5q28 0 28 -27v-4q-2 -4 -2 -6q-43 -104 -113 -179q-88 -90 -184 -90q-111 0 -110 133q0 35 6 68 q-137 -201 -299 -201q-96 0 -152 76q-49 66 -49 166zM248 195q0 -133 90 -134q127 0 254 258q86 176 135 373q14 58 14 76q0 41 -27.5 70.5t-68.5 29.5q-129 0 -268 -276q-129 -250 -129 -397zM623 1022l315 330q68 70 123 69q63 0 63 -59t-84 -113l-374 -239z" />
<glyph unicode="&#xe2;" d="M86 215q0 205 178 453q190 262 387 262q84 0 142 -74q16 61 65 62q94 0 94 -33q0 -6 -47 -148q-182 -547 -182 -628q0 -39 29 -39q57 0 131.5 104.5t77.5 104.5q28 0 28 -27v-4q-2 -4 -2 -6q-43 -104 -113 -179q-88 -90 -184 -90q-111 0 -110 133q0 35 6 68 q-137 -201 -299 -201q-96 0 -152 76q-49 66 -49 166zM248 195q0 -133 90 -134q127 0 254 258q86 176 135 373q14 58 14 76q0 41 -27.5 70.5t-68.5 29.5q-129 0 -268 -276q-129 -250 -129 -397zM418 1038l92 92q82 84 244 254l106 -2q49 -172 111 -295l20 -40q6 -19 6 -15 q0 -27 -28 -26q-27 0 -114 110.5t-91 110.5l-144 -107q-145 -108 -176 -108q-27 0 -26 26z" />
<glyph unicode="&#xe3;" d="M84 215q0 205 178 453q190 262 387 262q84 0 142 -74q16 61 65 62q94 0 94 -33q0 -6 -47 -148q-182 -547 -182 -628q0 -39 29 -39q57 0 131.5 104.5t76.5 104.5q29 0 29 -27v-4q-2 -4 -2 -6q-43 -104 -113 -179q-88 -90 -184 -90q-111 0 -110 133q0 35 6 68 q-137 -201 -299 -201q-96 0 -152 76q-49 66 -49 166zM246 195q0 -133 90 -134q127 0 254 258q86 176 135 373q14 58 14 76q0 41 -27.5 70.5t-68.5 29.5q-129 0 -268 -276q-129 -250 -129 -397zM381 1100q0 12 41 71q102 150 235 150q51 0 135.5 -42t100.5 -42q35 0 84 49 t65 49q13 0 29 -16q-29 -78 -113 -143q-86 -72 -163 -72q-45 0 -120 40t-120 40q-49 0 -89 -49.5t-63 -49.5t-22 15z" />
<glyph unicode="&#xe4;" d="M86 215q0 205 178 453q190 262 387 262q84 0 142 -74q16 61 65 62q94 0 94 -33q0 -6 -47 -148q-182 -547 -182 -628q0 -39 29 -39q57 0 131.5 104.5t77.5 104.5q28 0 28 -27v-4q-2 -4 -2 -6q-43 -104 -113 -179q-88 -90 -184 -90q-111 0 -110 133q0 35 6 68 q-137 -201 -299 -201q-96 0 -152 76q-49 66 -49 166zM248 195q0 -133 90 -134q127 0 254 258q86 176 135 373q14 58 14 76q0 41 -27.5 70.5t-68.5 29.5q-129 0 -268 -276q-129 -250 -129 -397zM420 1202q0 41 32.5 74t73.5 33q43 0 72 -32t29 -75t-33 -75.5t-76 -32.5 t-70.5 31.5t-27.5 76.5zM836 1202q0 43 32.5 75t75.5 32t70.5 -31t27.5 -76q0 -43 -32.5 -74.5t-73.5 -31.5q-45 0 -72.5 30.5t-27.5 75.5z" />
<glyph unicode="&#xe5;" d="M86 215q0 205 178 453q190 262 387 262q84 0 142 -74q16 61 65 62q94 0 94 -33q0 -6 -47 -148q-182 -547 -182 -628q0 -39 29 -39q57 0 131.5 104.5t77.5 104.5q28 0 28 -27v-4q-2 -4 -2 -6q-43 -104 -113 -179q-88 -90 -184 -90q-111 0 -110 133q0 35 6 68 q-137 -201 -299 -201q-96 0 -152 76q-49 66 -49 166zM248 195q0 -133 90 -134q127 0 254 258q86 176 135 373q14 58 14 76q0 41 -27.5 70.5t-68.5 29.5q-129 0 -268 -276q-129 -250 -129 -397zM551 1235q0 80 63.5 142.5t143.5 62.5q84 0 139 -60.5t55 -144.5 q0 -82 -63.5 -144.5t-147.5 -62.5t-137 61.5t-53 145.5zM612 1235q0 -59 36 -102t95 -43q57 0 101.5 45t44.5 100q0 59 -36 102t-95 43q-57 0 -101.5 -45t-44.5 -100z" />
<glyph unicode="&#xe6;" horiz-adv-x="1236" d="M119 205q0 252 258 485q246 223 504 250q47 4 114 4q314 -3 314 -153q0 -250 -486 -433q-23 -90 -22 -151q0 -158 108 -158q72 0 138 66q41 39 94 118q43 66 53 66q27 0 27 -27q0 -4 -4 -8q-41 -113 -138 -196q-106 -92 -217 -93q-182 0 -219 191q-63 -74 -145 -127 q-100 -66 -179 -66q-94 0 -149 70q-51 63 -51 162zM281 197q0 -133 88 -134q51 0 143 66q72 51 125 107q0 170 120.5 373.5t270.5 285.5q-12 2 -35 2q-70 0 -171 -26.5t-245.5 -136t-197.5 -202.5q-98 -166 -98 -335zM848 436q121 49 221 142q125 113 125 217q0 68 -61 67 q-88 0 -183 -172q-66 -121 -102 -254z" />
<glyph unicode="&#xe7;" horiz-adv-x="720" d="M10 -330l60 64q70 -33 127 -33q43 0 72.5 25.5t29.5 68.5q0 41 -57 41q-27 0 -56 -6l86 154q-84 18 -131 100q-39 70 -39 164q0 205 156 434q170 248 365 248q61 0 113 -36t52 -95q0 -33 -23.5 -59.5t-53.5 -26.5q-57 0 -64.5 75.5t-38.5 75.5q-123 0 -239 -270 q-102 -233 -103 -381q0 -164 107 -164q72 0 139 66q39 39 94 118q43 66 53 66q27 0 27 -27v-4q-2 -2 -2 -4q-41 -117 -143 -201q-111 -90 -228 -88l-34 -75q139 -10 139 -88q0 -23 -10 -45q-66 -147 -215 -148q-80 0 -183 51z" />
<glyph unicode="&#xe8;" horiz-adv-x="741" d="M109 236q0 197 161 436q176 258 363 258q63 0 105 -39t42 -100q0 -250 -485 -433q-23 -90 -23 -151q0 -158 109 -158q72 0 137 66q41 39 94 118q43 66 54 66q27 0 26 -27v-4q-2 -2 -2 -4q-41 -113 -139 -196q-106 -92 -217 -93q-111 0 -170 78q-55 70 -55 183zM319 436 q121 49 222 142q125 113 125 217q0 68 -62 67q-88 0 -182 -172q-66 -121 -103 -254zM410 1323q0 39 34.5 68.5t73.5 29.5q57 0 84 -69l127 -330l-51 -12l-238 239q-31 31 -30 74z" />
<glyph unicode="&#xe9;" horiz-adv-x="741" d="M109 236q0 197 161 436q176 258 363 258q63 0 105 -39t42 -100q0 -250 -485 -433q-23 -90 -23 -151q0 -158 109 -158q72 0 137 66q41 39 94 118q43 66 54 66q27 0 26 -27v-4q-2 -2 -2 -4q-41 -113 -139 -196q-106 -92 -217 -93q-111 0 -170 78q-55 70 -55 183zM319 436 q121 49 222 142q125 113 125 217q0 68 -62 67q-88 0 -182 -172q-66 -121 -103 -254zM561 1022l316 330q68 70 122 69q64 0 64 -59t-84 -113l-375 -239z" />
<glyph unicode="&#xea;" horiz-adv-x="741" d="M109 236q0 197 161 436q176 258 363 258q63 0 105 -39t42 -100q0 -250 -485 -433q-23 -90 -23 -151q0 -158 109 -158q72 0 137 66q41 39 94 118q43 66 54 66q27 0 26 -27v-4q-2 -2 -2 -4q-41 -113 -139 -196q-106 -92 -217 -93q-111 0 -170 78q-55 70 -55 183zM319 436 q121 49 222 142q125 113 125 217q0 68 -62 67q-88 0 -182 -172q-66 -121 -103 -254zM356 1038q37 37 93 92q82 84 243 254l107 -2q49 -172 110 -295l21 -40q6 -19 6 -15q0 -27 -29 -26q-27 0 -113.5 110.5t-91.5 110.5l-144 -107q-144 -108 -175 -108q-27 0 -27 26z" />
<glyph unicode="&#xeb;" horiz-adv-x="741" d="M109 236q0 197 161 436q176 258 363 258q63 0 105 -39t42 -100q0 -250 -485 -433q-23 -90 -23 -151q0 -158 109 -158q72 0 137 66q41 39 94 118q43 66 54 66q27 0 26 -27v-4q-2 -2 -2 -4q-41 -113 -139 -196q-106 -92 -217 -93q-111 0 -170 78q-55 70 -55 183zM319 436 q121 49 222 142q125 113 125 217q0 68 -62 67q-88 0 -182 -172q-66 -121 -103 -254zM358 1202q0 41 33 74t74 33q43 0 71.5 -32t28.5 -75t-32.5 -75.5t-75.5 -32.5t-71 31.5t-28 76.5zM774 1202q0 43 33 75t76 32t70.5 -31t27.5 -76q0 -43 -33 -74.5t-74 -31.5 q-45 0 -72.5 30.5t-27.5 75.5z" />
<glyph unicode="&#xec;" horiz-adv-x="585" d="M133 668q0 8 25 65q84 193 233 193q137 0 137 -109q0 -68 -79 -297q-104 -311 -107 -315q-12 -43 -12 -76q0 -53 39 -53q51 0 104 63q29 35 78 119q37 63 49 64q29 -2 25 -33v-8q-27 -104 -119 -199q-100 -104 -201 -105q-135 0 -135 146q0 66 31 164q2 4 96 266 q76 211 76 242q0 39 -29 39q-51 0 -114.5 -97.5t-75.5 -97.5q-20 0 -21 29zM205 1323q0 39 34.5 68.5t73.5 29.5q57 0 84 -69l127 -330l-51 -12l-237 239q-31 31 -31 74z" />
<glyph unicode="&#xed;" horiz-adv-x="585" d="M133 668q0 8 25 65q84 193 233 193q137 0 137 -109q0 -68 -79 -297q-104 -311 -107 -315q-12 -43 -12 -76q0 -53 39 -53q51 0 104 63q29 35 78 119q37 63 49 64q29 -2 25 -33v-8q-27 -104 -119 -199q-100 -104 -201 -105q-135 0 -135 146q0 66 31 164q2 4 96 266 q76 211 76 242q0 39 -29 39q-51 0 -114.5 -97.5t-75.5 -97.5q-20 0 -21 29zM377 1022l315 330q68 70 123 69q64 0 64 -59t-84 -113l-375 -239z" />
<glyph unicode="&#xee;" horiz-adv-x="585" d="M131 1038l92 92q82 84 244 254l106 -2q49 -172 111 -295l21 -40q6 -19 6 -15q0 -27 -29 -26q-27 0 -114 110.5t-91 110.5l-145 -107q-144 -108 -174 -108q-27 0 -27 26zM133 668q0 8 25 65q84 193 233 193q137 0 137 -109q0 -68 -79 -297q-104 -311 -107 -315 q-12 -43 -12 -76q0 -53 39 -53q51 0 104 63q29 35 78 119q37 63 49 64q29 -2 25 -33v-8q-27 -104 -119 -199q-100 -104 -201 -105q-135 0 -135 146q0 66 31 164q2 4 96 266q76 211 76 242q0 39 -29 39q-51 0 -114.5 -97.5t-75.5 -97.5q-20 0 -21 29z" />
<glyph unicode="&#xef;" horiz-adv-x="585" d="M133 668q0 8 25 65q84 193 233 193q137 0 137 -109q0 -68 -79 -297q-104 -311 -107 -315q-12 -43 -12 -76q0 -53 39 -53q51 0 104 63q29 35 78 119q37 63 49 64q29 -2 25 -33v-8q-27 -104 -119 -199q-100 -104 -201 -105q-135 0 -135 146q0 66 31 164q2 4 96 266 q76 211 76 242q0 39 -29 39q-51 0 -114.5 -97.5t-75.5 -97.5q-20 0 -21 29zM174 1202q0 41 33 74t74 33q43 0 71.5 -32t28.5 -75t-33 -75.5t-76 -32.5t-70.5 31.5t-27.5 76.5zM590 1202q0 43 32.5 75t75.5 32t71 -31t28 -76q0 -43 -33 -74.5t-74 -31.5q-45 0 -72.5 30.5 t-27.5 75.5z" />
<glyph unicode="&#xf0;" horiz-adv-x="888" d="M129 309q0 211 129 406q145 217 346 217q63 0 117 -27q-20 150 -105 281q-11 20 -38 57q-55 -37 -205 -141q-37 18 -15 67l177 123q-104 113 -256 125q-20 2 -21 19q0 31 37 28q180 -10 317 -116q55 39 201 141q29 -6 29 -37q0 -14 -8 -29l-170 -116q72 -66 108 -123 q115 -184 115 -443q0 -104 -19 -219q-37 -236 -151 -383q-129 -166 -318 -166q-133 0 -204 107q-66 92 -66 229zM281 209q0 -178 120 -178q127 0 234 276q88 233 88 393q0 113 -29 146q-21 22 -84 22q-129 0 -237 -272q-92 -231 -92 -387z" />
<glyph unicode="&#xf1;" horiz-adv-x="1067" d="M100 641l2 8q27 102 105 187q88 92 186 92q109 0 109 -129q0 -45 -21 -131q63 98 154 172q111 90 205 90q152 0 151 -148q0 -70 -69 -280q-96 -295 -97 -297q-12 -45 -12 -76q0 -53 39 -53q51 0 104 63q29 35 78 119q37 63 49 64q29 -2 25 -33q0 -4 -2 -8 q-27 -104 -117 -199q-100 -104 -201 -105q-131 0 -131 152q0 66 27 158q43 127 88 256q59 178 59 248q0 51 -49 51q-86 0 -194 -142q-78 -102 -133 -223q-45 -100 -148 -477l-162 -2q37 106 125 414q96 336 97 374q0 35 -31 35q-55 0 -105 -67q-16 -20 -65 -113 q-12 -25 -35 -25q-31 0 -31 25zM401 1100q0 12 41 71q102 150 236 150q51 0 135 -42t100 -42q35 0 84.5 49t65.5 49q13 0 29 -16q-29 -78 -113 -143q-86 -72 -164 -72q-45 0 -119.5 40t-120.5 40q-49 0 -89 -49.5t-62 -49.5q-23 0 -23 15z" />
<glyph unicode="&#xf2;" horiz-adv-x="888" d="M129 309q0 211 129 406q145 217 346 217q133 0 205 -107q63 -94 63 -233q0 -213 -127 -404q-143 -215 -346 -215q-133 0 -204 107q-66 92 -66 229zM281 209q0 -178 120 -178q127 0 234 276q88 233 88 393q0 168 -113 168q-129 0 -237 -272q-92 -231 -92 -387zM369 1323 q0 39 34.5 68.5t73.5 29.5q57 0 84 -69l127 -330l-51 -12l-238 239q-31 31 -30 74z" />
<glyph unicode="&#xf3;" horiz-adv-x="888" d="M129 309q0 211 129 406q145 217 346 217q133 0 205 -107q63 -94 63 -233q0 -213 -127 -404q-143 -215 -346 -215q-133 0 -204 107q-66 92 -66 229zM281 209q0 -178 120 -178q127 0 234 276q88 233 88 393q0 168 -113 168q-129 0 -237 -272q-92 -231 -92 -387zM541 1022 l315 330q68 70 123 69q63 0 63 -59t-84 -113l-374 -239z" />
<glyph unicode="&#xf4;" horiz-adv-x="888" d="M129 309q0 211 129 406q145 217 346 217q133 0 205 -107q63 -94 63 -233q0 -213 -127 -404q-143 -215 -346 -215q-133 0 -204 107q-66 92 -66 229zM281 209q0 -178 120 -178q127 0 234 276q88 233 88 393q0 168 -113 168q-129 0 -237 -272q-92 -231 -92 -387zM356 1038 q37 37 93 92q82 84 243 254l107 -2q49 -172 110 -295l21 -40q6 -19 6 -15q0 -27 -29 -26q-27 0 -113.5 110.5t-91.5 110.5l-144 -107q-144 -108 -175 -108q-27 0 -27 26z" />
<glyph unicode="&#xf5;" horiz-adv-x="888" d="M127 309q0 211 129 406q145 217 346 217q133 0 205 -107q63 -94 63 -233q0 -213 -127 -404q-143 -215 -346 -215q-133 0 -204 107q-66 92 -66 229zM279 209q0 -178 120 -178q127 0 234 276q88 233 88 393q0 168 -113 168q-129 0 -237 -272q-92 -231 -92 -387zM381 1100 q0 12 41 71q102 150 235 150q51 0 135.5 -42t100.5 -42q35 0 84 49t65 49q13 0 29 -16q-29 -78 -113 -143q-86 -72 -163 -72q-45 0 -120 40t-120 40q-49 0 -89 -49.5t-63 -49.5t-22 15z" />
<glyph unicode="&#xf6;" horiz-adv-x="888" d="M129 309q0 211 129 406q145 217 346 217q133 0 205 -107q63 -94 63 -233q0 -213 -127 -404q-143 -215 -346 -215q-133 0 -204 107q-66 92 -66 229zM281 209q0 -178 120 -178q127 0 234 276q88 233 88 393q0 168 -113 168q-129 0 -237 -272q-92 -231 -92 -387zM358 1202 q0 41 33 74t74 33q43 0 71.5 -32t28.5 -75t-32.5 -75.5t-75.5 -32.5t-71 31.5t-28 76.5zM774 1202q0 43 33 75t76 32t70.5 -31t27.5 -76q0 -43 -33 -74.5t-74 -31.5q-45 0 -72.5 30.5t-27.5 75.5z" />
<glyph unicode="&#xf8;" horiz-adv-x="888" d="M-10 -158l182 275q-43 84 -43 192q0 211 129 406q145 217 346 217q61 0 101 -21l86 121l61 -18q-57 -94 -86 -140q106 -96 106 -282q0 -213 -127 -404q-143 -215 -346 -215q-106 0 -178 74q-23 -35 -39 -33l-127 -190zM289 133q20 -102 112 -102q129 0 234 276 q88 233 88 393q0 51 -10 84q-137 -219 -424 -651zM289 289l377 565q-18 14 -54 14q-121 0 -223 -237q-74 -170 -100 -342z" />
<glyph unicode="&#xf9;" horiz-adv-x="1050" d="M100 641l2 8q27 102 105 187q88 92 186 92q49 0 84 -36t35 -87v-19q-25 -135 -96 -366q-84 -270 -84 -303q0 -49 51 -49q147 0 301 352q66 147 170 485h164q-2 -14 -64 -217q-51 -160 -147 -483q-12 -45 -12 -76q0 -53 39 -53q51 0 104 63q29 35 78 119q37 63 49 64 q29 -2 25 -33v-8q-27 -104 -119 -199q-100 -104 -201 -105q-137 0 -137 140q0 37 10 78l-4 6l12 30q-170 -256 -332 -256q-63 0 -104 33t-35 92l2 21q8 74 74 285q31 94 90 282q20 68 21 98q0 35 -31 35q-55 0 -105 -67q-16 -20 -65 -113q-12 -25 -35 -25q-31 0 -31 25z M389 1323q0 39 35 68.5t74 29.5q57 0 84 -69l127 -330l-52 -12l-237 239q-31 31 -31 74z" />
<glyph unicode="&#xfa;" horiz-adv-x="1050" d="M100 641l2 8q27 102 105 187q88 92 186 92q49 0 84 -36t35 -87v-19q-25 -135 -96 -366q-84 -270 -84 -303q0 -49 51 -49q147 0 301 352q66 147 170 485h164q-2 -14 -64 -217q-51 -160 -147 -483q-12 -45 -12 -76q0 -53 39 -53q51 0 104 63q29 35 78 119q37 63 49 64 q29 -2 25 -33v-8q-27 -104 -119 -199q-100 -104 -201 -105q-137 0 -137 140q0 37 10 78l-4 6l12 30q-170 -256 -332 -256q-63 0 -104 33t-35 92l2 21q8 74 74 285q31 94 90 282q20 68 21 98q0 35 -31 35q-55 0 -105 -67q-16 -20 -65 -113q-12 -25 -35 -25q-31 0 -31 25z M643 1022l315 330q68 70 123 69q64 0 64 -59t-84 -113l-375 -239z" />
<glyph unicode="&#xfb;" horiz-adv-x="1050" d="M100 641l2 8q27 102 105 187q88 92 186 92q49 0 84 -36t35 -87v-19q-25 -135 -96 -366q-84 -270 -84 -303q0 -49 51 -49q147 0 301 352q66 147 170 485h164q-2 -14 -64 -217q-51 -160 -147 -483q-12 -45 -12 -76q0 -53 39 -53q51 0 104 63q29 35 78 119q37 63 49 64 q29 -2 25 -33v-8q-27 -104 -119 -199q-100 -104 -201 -105q-137 0 -137 140q0 37 10 78l-4 6l12 30q-170 -256 -332 -256q-63 0 -104 33t-35 92l2 21q8 74 74 285q31 94 90 282q20 68 21 98q0 35 -31 35q-55 0 -105 -67q-16 -20 -65 -113q-12 -25 -35 -25q-31 0 -31 25z M356 1038q37 37 93 92q82 84 243 254l107 -2q49 -172 110 -295l21 -40q6 -19 6 -15q0 -27 -29 -26q-27 0 -113.5 110.5t-91.5 110.5l-144 -107q-144 -108 -175 -108q-27 0 -27 26z" />
<glyph unicode="&#xfc;" horiz-adv-x="1050" d="M100 641l2 8q27 102 105 187q88 92 186 92q49 0 84 -36t35 -87v-19q-25 -135 -96 -366q-84 -270 -84 -303q0 -49 51 -49q147 0 301 352q66 147 170 485h164q-2 -14 -64 -217q-51 -160 -147 -483q-12 -45 -12 -76q0 -53 39 -53q51 0 104 63q29 35 78 119q37 63 49 64 q29 -2 25 -33v-8q-27 -104 -119 -199q-100 -104 -201 -105q-137 0 -137 140q0 37 10 78l-4 6l12 30q-170 -256 -332 -256q-63 0 -104 33t-35 92l2 21q8 74 74 285q31 94 90 282q20 68 21 98q0 35 -31 35q-55 0 -105 -67q-16 -20 -65 -113q-12 -25 -35 -25q-31 0 -31 25z M399 1202q0 41 33 74t74 33q43 0 71.5 -32t28.5 -75t-32.5 -75.5t-75.5 -32.5t-71 31.5t-28 76.5zM815 1202q0 43 33 75t76 32t70.5 -31t27.5 -76q0 -43 -33 -74.5t-74 -31.5q-45 0 -72.5 30.5t-27.5 75.5z" />
<glyph unicode="&#xfd;" horiz-adv-x="813" d="M-129 -502q0 31 22.5 52.5t51.5 21.5q20 0 62 -10.5t63 -10.5q111 0 225 193q102 172 102 326q0 135 -47 403q-57 324 -119 324q-55 0 -79.5 -129t-34.5 -129q-27 0 -27 45q0 123 39 219q53 129 158 129q96 0 153 -174q43 -125 68 -350q10 -135 22 -273q186 342 187 514 q0 53 -36 119t-36 96q0 27 19.5 47.5t46.5 20.5q102 0 102 -172q0 -168 -117 -443q-90 -207 -217 -413q-301 -487 -491 -488q-43 0 -76 19q-41 25 -41 63zM438 1022l316 330q68 70 123 69q63 0 63 -59t-84 -113l-375 -239z" />
<glyph unicode="&#xfe;" d="M-215 -530q0 18 65 36q43 12 87 25q72 29 126 221l435 1495q6 20 6 39q0 51 -72 55.5t-72 20.5q0 25 60 39q268 68 266 67q25 0 21 -34q0 -31 -17 -84l-160 -523q82 102 185 103q125 0 194 -92q66 -84 66 -213q0 -211 -158 -420q-168 -225 -373 -225q-90 0 -131 69 q-35 -106 -67 -215q-51 -168 -51 -229q0 -51 38 -76q18 -10 72 -25q39 -8 39 -24q0 -33 -39 -33h-493q-27 0 -27 23zM352 158q0 -45 29 -74t76 -29q145 0 260 246q98 209 98 375q0 180 -123 180q-174 0 -309 -553q-14 -47 -31 -145z" />
<glyph unicode="&#xff;" horiz-adv-x="813" d="M-129 -502q0 31 22.5 52.5t51.5 21.5q20 0 62 -10.5t63 -10.5q111 0 225 193q102 172 102 326q0 135 -47 403q-57 324 -119 324q-55 0 -79.5 -129t-34.5 -129q-27 0 -27 45q0 123 39 219q53 129 158 129q96 0 153 -174q43 -125 68 -350q10 -135 22 -273q186 342 187 514 q0 53 -36 119t-36 96q0 27 19.5 47.5t46.5 20.5q102 0 102 -172q0 -168 -117 -443q-90 -207 -217 -413q-301 -487 -491 -488q-43 0 -76 19q-41 25 -41 63zM236 1202q0 41 32.5 74t73.5 33q43 0 71.5 -32t28.5 -75t-32.5 -75.5t-75.5 -32.5t-70.5 31.5t-27.5 76.5zM651 1202 q0 43 33 75t76 32t70.5 -31t27.5 -76q0 -43 -32.5 -74.5t-73.5 -31.5q-45 0 -73 30.5t-28 75.5z" />
<glyph unicode="&#x152;" horiz-adv-x="2060" d="M162 485q0 383 309 691.5t692 308.5q88 0 160 -19q6 0 33.5 -8t29.5 -8h721q60 0 60 -29q0 -100 -51 -282q-10 -33 -23 -33q-27 0 -18 53q-8 147 -131 195q-70 25 -254 26q-147 2 -160 -43l-152 -538h117q104 0 162 28q66 33 108 117q12 31 41 90q6 10 19 10q16 0 16 -18 q0 -8 -2 -12q-23 -80 -70 -240q-20 -88 -71 -262q-10 -29 -29 -29q-14 0 -14 13q0 18 4 55t4 55q0 125 -195 125h-59q-37 -2 -51 -2l-117 -420q-20 -74 -20 -121q0 -84 77 -110q43 -14 152 -15q143 0 213 23q90 31 180 125q10 10 88 115q68 92 74 90q16 0 20 -17 q0 -16 -141 -399h-645h-276q-23 -6 -68 -18q-80 -18 -178 -19q-248 0 -398 135q-158 141 -157 387zM399 418q0 -385 340 -385q213 0 289 272l236 840q22 80 22 139q0 137 -149 137q-317 0 -541 -354q-197 -311 -197 -649z" />
<glyph unicode="&#x153;" horiz-adv-x="1251" d="M121 299q0 207 137 408q150 223 346 223q170 0 246 -182q166 184 311 184q63 0 107.5 -36t44.5 -97q0 -240 -494 -443q-31 -123 -31 -176q0 -129 97 -129q78 0 157 86q59 72 121 142q16 -4 43 -19q-150 -287 -362 -287q-129 0 -185 127q-131 -127 -262 -127 q-133 0 -209 99q-68 88 -67 227zM276 227q0 -188 123 -188q129 0 236 278q88 234 88 394t-113 159q-123 0 -235 -266q-98 -229 -99 -377zM842 434q123 55 225 150q129 117 129 223q0 63 -53 63q-96 0 -193 -174q-61 -111 -108 -262z" />
<glyph unicode="&#x178;" horiz-adv-x="1415" d="M219 1024q0 23 35 109q133 332 381 331q143 0 211 -133q51 -102 51 -260q0 -70 -8 -209q39 80 121 228q225 383 520 383q66 0 114 -44t48 -110q0 -41 -28 -71.5t-69 -30.5q-57 0 -99 86t-103 86q-72 0 -185 -127q-76 -86 -139 -189q-106 -172 -178 -373 q-39 -109 -119 -395q-29 -102 -29 -149q0 -49 39 -74q18 -12 72 -25q39 -8 39 -22q0 -35 -39 -35h-545q-27 0 -26 23q0 18 65 38q43 10 84 23q78 31 129 221q98 354 111 412q70 276 69 409q0 96 -41 156q-47 70 -139 70q-188 0 -282 -262q-33 -90 -52 -91q-8 0 -8 25z M748 1735q0 41 32.5 73.5t73.5 32.5q43 0 71.5 -31.5t28.5 -74.5t-32.5 -76t-75.5 -33t-70.5 32t-27.5 77zM1163 1735q0 43 33 74.5t76 31.5t70.5 -30.5t27.5 -75.5q0 -43 -32.5 -75t-73.5 -32q-45 0 -73 31t-28 76z" />
<glyph unicode="&#x2c6;" horiz-adv-x="919" d="M356 1038q37 37 93 92q82 84 243 254l107 -2q49 -172 110 -295l21 -40q6 -19 6 -15q0 -27 -29 -26q-27 0 -113.5 110.5t-91.5 110.5l-144 -107q-144 -108 -175 -108q-27 0 -27 26z" />
<glyph unicode="&#x2dc;" horiz-adv-x="976" d="M381 1100q0 12 41 71q102 150 235 150q51 0 135.5 -42t100.5 -42q35 0 84 49t65 49q13 0 29 -16q-29 -78 -113 -143q-86 -72 -163 -72q-45 0 -120 40t-120 40q-49 0 -89 -49.5t-63 -49.5t-22 15z" />
<glyph unicode="&#x2000;" horiz-adv-x="996" />
<glyph unicode="&#x2001;" horiz-adv-x="1993" />
<glyph unicode="&#x2002;" horiz-adv-x="996" />
<glyph unicode="&#x2003;" horiz-adv-x="1993" />
<glyph unicode="&#x2004;" horiz-adv-x="664" />
<glyph unicode="&#x2005;" horiz-adv-x="498" />
<glyph unicode="&#x2006;" horiz-adv-x="332" />
<glyph unicode="&#x2007;" horiz-adv-x="332" />
<glyph unicode="&#x2008;" horiz-adv-x="249" />
<glyph unicode="&#x2009;" horiz-adv-x="398" />
<glyph unicode="&#x200a;" horiz-adv-x="110" />
<glyph unicode="&#x2010;" horiz-adv-x="550" d="M59 401l33 111h463l-31 -111h-465z" />
<glyph unicode="&#x2011;" horiz-adv-x="550" d="M59 401l33 111h463l-31 -111h-465z" />
<glyph unicode="&#x2012;" horiz-adv-x="550" d="M59 401l33 111h463l-31 -111h-465z" />
<glyph unicode="&#x2013;" horiz-adv-x="1056" d="M104 510l19 115l952 2l-18 -115z" />
<glyph unicode="&#x2014;" horiz-adv-x="1431" d="M102 451l25 106l1335 2l-24 -108h-1336z" />
<glyph unicode="&#x2018;" horiz-adv-x="479" d="M328 1083q2 104 96 207q76 84 186 144q27 16 56 30q30 0 30 -20q0 -2 -119.5 -98.5t-119.5 -157.5v-6q25 4 39 4q94 0 94 -74q0 -55 -48 -99t-104 -44q-113 0 -110 114z" />
<glyph unicode="&#x2019;" horiz-adv-x="479" d="M293 983q0 2 119.5 96.5t115.5 157.5l2 6q-16 -4 -49 -4q-80 0 -80 70q0 57 47.5 101t104.5 44q111 0 109 -111q0 -23 -5 -55q-51 -174 -282 -297q-45 -31 -60 -30q-23 0 -22 22z" />
<glyph unicode="&#x201a;" horiz-adv-x="497" d="M-59 -276q0 2 112.5 98t118.5 164q-29 -4 -43 -4q-82 0 -82 71q0 55 47 99.5t105 44.5q51 0 81.5 -31t28.5 -82q-2 -104 -100 -211q-82 -88 -193 -143q-41 -27 -55 -27q-23 0 -20 21z" />
<glyph unicode="&#x201c;" horiz-adv-x="849" d="M328 1083q2 104 96 207q76 84 186 144q27 16 56 30q30 0 30 -20q0 -2 -119.5 -98.5t-119.5 -157.5v-6q25 4 39 4q94 0 94 -74q0 -55 -48 -99t-104 -44q-113 0 -110 114zM674 1083q0 23 4 56q51 174 278 295q47 31 62 30q26 1 26 -24l-120 -94q-121 -95 -117 -158l-2 -6 q33 4 49 4q84 0 84 -72q0 -57 -48 -101t-106 -44q-113 0 -110 114z" />
<glyph unicode="&#x201d;" horiz-adv-x="849" d="M293 983q0 2 119.5 96.5t115.5 157.5l2 6q-16 -4 -49 -4q-80 0 -80 70q0 57 47.5 101t104.5 44q111 0 109 -111q0 -23 -5 -55q-51 -174 -282 -297q-45 -31 -60 -30q-23 0 -22 22zM641 983q0 4 116.5 97.5t116.5 156.5v6q-29 -4 -40 -4q-84 0 -84 72q0 57 47 100t104 43 q111 0 111 -111q0 4 -6 -57q-51 -170 -283 -295q-45 -31 -59 -30q-23 0 -23 22z" />
<glyph unicode="&#x201e;" horiz-adv-x="849" d="M-59 -276q0 2 112.5 98t118.5 164q-29 -4 -43 -4q-82 0 -82 71q0 55 47 99.5t105 44.5q51 0 81.5 -31t28.5 -82q-2 -104 -100 -211q-82 -88 -193 -143q-41 -27 -55 -27q-23 0 -20 21zM285 -274l115 96q114 96 124 164q-16 -4 -47 -4q-82 0 -82 71q0 55 47 99.5t105 44.5 q112 0 110 -113q-2 -104 -100 -211q-82 -86 -192 -143q-39 -27 -56 -27q-25 0 -24 23z" />
<glyph unicode="&#x2022;" horiz-adv-x="819" d="M276 725q0 98 70 167t168 69t169 -69t71 -167t-70 -167t-168 -69q-100 0 -170 68t-70 168z" />
<glyph unicode="&#x2026;" horiz-adv-x="1673" d="M82 72q0 63 50 123.5t114 60.5q43 0 68.5 -28.5t25.5 -71.5q0 -63 -50 -123t-112 -60q-41 0 -68.5 29t-27.5 70zM641 70q0 63 50 123.5t112 60.5q43 0 69.5 -28.5t26.5 -71.5q0 -63 -50 -123t-114 -60q-41 0 -67.5 30t-26.5 69zM1202 72q0 63 49 122.5t111 59.5 q43 0 69.5 -28.5t26.5 -71.5q0 -63 -49 -123t-113 -60q-43 0 -68.5 29t-25.5 72z" />
<glyph unicode="&#x202f;" horiz-adv-x="398" />
<glyph unicode="&#x2039;" horiz-adv-x="595" d="M111 451q0 4 28 32q94 68 283 207q51 41 151 119q23 16 37 16q17 0 17 -20q0 -14 -152 -170q-88 -90 -178 -182q23 -41 72 -166q53 -133 57 -164q2 -6 2 -14q0 -27 -31 -27q-23 14 -133 164q-133 178 -141 186q-12 18 -12 19z" />
<glyph unicode="&#x203a;" horiz-adv-x="595" d="M25 90q0 31 145 184q104 109 182 181q-106 225 -133 327v9q0 35 29 34q4 0 20 -16q63 -76 256 -326q15 -14 15 -24t-23 -27l-287 -213q-51 -45 -159 -121l-29 -16q-14 0 -16 8z" />
<glyph unicode="&#x205f;" horiz-adv-x="498" />
<glyph unicode="&#x20ac;" horiz-adv-x="931" d="M-14 469l37 86h81q6 88 29 186h-102l37 86h88q76 256 223 403.5t328 147.5q94 0 178 -41q104 -51 90 -135q-12 -80 -94 -80q-49 0 -69.5 47.5t-39.5 94.5q-29 49 -92 49q-229 0 -332 -486h361l-37 -86h-340q-18 -100 -27 -186h287l-37 -86h-258q-2 -41 -2 -78 q0 -336 219 -336q88 0 174 62q18 14 117 104q12 10 20 10q14 0 15 -22q0 -33 -33 -68q-160 -172 -354 -172q-168 0 -263 142q-90 135 -90 358h-114z" />
<glyph unicode="&#x2122;" horiz-adv-x="1875" d="M33 1145l14 194h674l14 -194l-33 -2q-6 100 -84 129q-41 14 -165 16v-594q0 -57 23.5 -75.5t78.5 -20.5v-37h-342v37q57 4 78.5 21.5t21.5 70.5v598q-125 -2 -163 -16q-74 -29 -84 -129zM799 1303v36h254l266 -569l256 569h250v-34q-57 0 -78 -15q-27 -20 -27 -78v-520 q0 -59 25 -78q18 -14 80 -16v-37h-357v37q61 2 82 16q29 18 29 76v518l-285 -647h-34l-293 627l-2 -496q0 -63 26 -82q20 -12 88 -12v-37h-278v37q57 0 81.5 17.5t24.5 74.5v510q0 68 -21.5 85.5t-86.5 17.5z" />
<glyph unicode="&#x25fc;" horiz-adv-x="931" d="M0 0v932h932v-932h-932z" />
</font>
</defs>
</svg>
